<svg width="258" height="30" fill="none" xmlns="http://www.w3.org/2000/svg"><path fill-rule="evenodd" clip-rule="evenodd" d="m64.74 15-.201.2c-1.405 1.5-3.01 2.2-4.515 2.2l2.809-4.9c1.806-3.1.1-6.1-2.709-6.1-2.307 0-4.113.9-5.819 3.9L52.8 12.9 51.596 15l-.2.2c-2.207 2.5-4.314 4.5-5.618 4.5-.703 0-1.004-.5-.301-1.6l6.42-11.2h2.408l.903-1.4H52.7L55.51.6H52.5l-2.81 4.9h-2.709l-.903 1.4h2.71l-6.02 10.4c-1.304 2.2-.402 4.3 2.006 4.3 1.706 0 3.712-1.3 5.518-3.1 0 3.8 5.317 4.6 8.528.5h.702c1.806 0 4.615-1.1 6.12-2.9 0-.5-.501-.9-.903-1.1Zm-6.422.2h-.1c-1.003 0-1.806.8-1.806 1.8 0 .4.1.7.301 1v.1c-1.404 2.4-4.816 2-3.11-1.2L55.91 13l1.405-2.4c2.107-3.6 5.016-2.2 3.21.9l-2.207 3.7Zm48.057-.2-.201.2c-2.207 2.5-4.916 4.5-7.023 4.5-1.806 0-2.91-1.2-1.605-3.6l.301-.5c1.906.8 5.618.4 7.825-3.5l.402-.7c1.605-2.8.1-4.8-2.408-4.8-2.408 0-4.314 1.3-5.618 3.5l-2.91 5-.2.2c-2.208 2.5-4.314 4.5-5.619 4.5-.702 0-1.003-.5-.3-1.6l4.313-7.6c1.305-2.3.1-3.9-1.605-3.9-1.304 0-2.709.7-4.214 2.3L92.33.7h-3.01L80.992 15l-.2.2c-2.208 2.5-4.314 4.5-5.619 4.5-.702 0-1.003-.5-.3-1.6l6.42-11.2h2.408l.903-1.4h-2.508L84.905.6h-3.01l-2.809 4.9h-2.709l-.903 1.4h2.709l-6.02 10.4c-1.304 2.2-.4 4.3 2.007 4.3 1.204 0 2.508-.6 3.812-1.6l-.802 1.3h3.01l4.514-7.9c4.615-5.8 6.622-5 5.418-2.8l-3.913 6.8c-1.304 2.2-.401 4.3 2.007 4.3 1.806 0 3.812-1.4 5.618-3.2.1 1.9 1.706 3.2 4.113 3.2 3.411 0 6.823-2.6 9.23-5.5.101-.6-.401-1-.802-1.2Zm-5.719-4.2c1.706-3 4.816-2.5 3.01.6l-.401.7c-1.405 2.4-3.412 2.4-4.515 2l1.906-3.3Zm114.974 4.4.201-.2c.501.1 1.003.6 1.103 1.1-2.207 2.6-5.217 5-8.327 5.4h-.1c-.301.1-.502.1-.803.1-2.809 0-3.31-2.4-3.31-2.4l1.906-1s.401 1.1 1.404 1.1c1.923 0 2.268-2.446 2.629-5 .185-1.31.374-2.649.782-3.7-.352.447-.746.966-1.173 1.53h-.001l-.001.002c-.911 1.201-1.979 2.608-3.139 3.968-2.508 2.9-5.317 5.5-7.825 5.5-1.906 0-2.91-1.3-2.609-2.9-1.404 1.4-3.31 2.9-4.916 2.9-1.705 0-2.407-1.4-1.605-3.5-1.103.6-2.408.9-3.311.9h-.702c-3.21 4.1-8.628 3.3-8.528-.6-2.006 1.8-4.514 3.2-6.922 3.2-2.508 0-4.013-1.3-4.113-3.2-2.509 2.4-4.916 3.8-7.324 4.6l-2.308 3.9c-2.207 3.7-6.621 3.1-6.621.2 0-2.2 2.608-3.9 6.621-5.1l.702-1.2c-1.103.6-2.106 1-2.909 1-1.706 0-2.608-1-2.608-2.4-1.606 1.4-3.311 2.4-4.816 2.4-2.408 0-3.311-2.1-2.007-4.3l3.211-5.5c.301-.6.2-1.2-.201-1.7l-.401-.5c-2.408 3.2-3.612 4.7-5.017 6.4-1.504 1.8-4.314 2.9-6.119 2.9h-.703c-3.21 4.1-8.527 3.3-8.527-.5-2.509 2.3-4.816 3.8-7.224 4.5l-2.307 3.9c-2.208 3.7-6.622 3.1-6.622.2 0-2.2 2.608-3.9 6.622-5.1l.802-1.4c-1.103.6-2.107 1-2.909 1-2.408 0-3.311-2.1-2.007-4.3l4.214-7.3c1.204-2.2 3.511-3.5 5.116-3.5 1.806 0 3.111 1.7 3.111 2.9h1.806L121.123 21c2.407-1 4.514-2.8 7.022-5.7l.201-.2 1.204-2.1 1.505-2.6c1.705-3 3.511-3.9 5.819-3.9 2.809 0 4.515 3 2.709 6.1l-2.809 4.9c1.504 0 3.11-.7 4.514-2.2l.201-.2c2.006-2.3 3.812-4.8 5.117-6.7l-.301-.3c-1.004-1.4-.903-3.1.802-4.6l1.605 1.7c-.602.5-.602 1.2-.2 1.7l1.705 2c.903 1.2 1.405 2.3.402 4.1l-3.01 5.2c-.702 1.1-.401 1.6.301 1.6 1.304 0 3.411-2 5.618-4.5l.201-.2 2.909-5c1.204-2.2 3.512-3.5 5.117-3.5 1.806 0 3.11 1.7 3.11 2.9h1.806L159.949 21c2.408-1 4.515-2.8 7.023-5.7l.2-.2 2.91-5c1.304-2.2 3.21-3.5 5.618-3.5 2.508 0 4.013 2 2.408 4.8l-.401.7c-2.207 3.9-5.919 4.3-7.826 3.5l-.301.5c-1.304 2.4-.2 3.6 1.606 3.6 2.106 0 4.815-2 7.022-4.5l.201-.2 1.204-2.1 1.505-2.6c1.705-3 3.511-3.9 5.819-3.9 2.809 0 4.514 3 2.709 6.1l-2.81 4.9c1.505 0 3.111-.7 4.515-2.2l.201-.2 4.715-8.1h3.01l-5.819 10.2-.037.064-.049.085c-.405.698-.97 1.672-.315 1.951.602.2 2.307-.9 4.615-3l5.317-9.3h3.01l-6.421 11.2c-.702 1.1-.401 1.6.301 1.6 1.304 0 3.411-2 5.618-4.5l.201-.2c2.598-2.96 5.109-6.517 6.425-8.38l.011-.016.286-.404 2.207 1.2c-1.147 2.345-1.495 4.836-1.808 7.079-.208 1.487-.401 2.865-.801 4.021 1.204-.9 2.509-2 3.612-3.3Zm-39.829-3.8c1.805-3.1-1.305-3.6-3.01-.6l-1.906 3.3c1.103.4 3.11.4 4.514-2l.402-.7Zm-62.002 15.1c0 .9 1.003 1 1.605-.1l1.405-2.5c-2.308.9-3.01 1.8-3.01 2.6Zm2.709-8.4c-.703 1.1-.402 1.6.301 1.6 1.204 0 3.11-1.4 4.916-4.3l2.307-4c1.505-2.7-1.705-3.4-3.311-.6l-4.213 7.3Zm18.66-2.9h.101l2.207-3.7c1.806-3.1-1.104-4.5-3.211-.9l-1.404 2.4-2.308 3.9c-1.705 3.2 1.706 3.6 3.11 1.2V18c-.2-.3-.301-.6-.301-1 0-1 .803-1.8 1.806-1.8Zm17.357 11.3c0 .9 1.003 1 1.605-.1l1.405-2.5c-2.308.9-3.01 1.8-3.01 2.6Zm2.709-8.4c-.703 1.1-.402 1.6.301 1.6 1.204 0 3.11-1.4 4.916-4.3l2.307-4c1.505-2.7-1.705-3.4-3.311-.6l-4.213 7.3Zm29.797-2.9h.1l2.207-3.7c1.806-3.1-1.104-4.5-3.21-.9l-1.405 2.4-2.307 3.9c-1.706 3.2 1.705 3.6 3.11 1.2V18c-.201-.3-.301-.6-.301-1 0-1 .802-1.8 1.806-1.8ZM29.525 11.8H.53v2h28.995v-2Zm198.746 0h28.995v2h-28.995v-2Z" fill="#766458"/></svg>