<svg width="296" height="80" fill="none" xmlns="http://www.w3.org/2000/svg"><path fill-rule="evenodd" clip-rule="evenodd" d="M6.462 7.6c0 .3-.1.6-.201.9-.1.3-.3.6-.502.8-.2.2-.501.4-.802.6-.301.1-.702.2-1.104.2-.501 0-.903-.1-1.304-.3-.402-.2-.803-.4-1.104-.7-.238-.237-.35-.475-.486-.761C.923 8.262.885 8.184.843 8.1c-.1-.4-.2-.8-.2-1.3 0-.9.2-1.6.501-2.4.301-.7.703-1.4 1.305-1.9.2-.2.501-.5.802-.7.301-.2.602-.4.903-.5.19-.063.339-.165.473-.257.08-.055.155-.106.23-.143.076-.038.138-.062.191-.082A.527.527 0 0 0 5.258.7l1.404 2c-.06.03-.13.06-.205.093h-.002a3.659 3.659 0 0 0-.595.307c-.301.1-.602.3-.903.5-.301.2-.502.5-.702.8-.201.3-.301.6-.301 1 .702 0 1.203.2 1.705.6.602.3.803.9.803 1.6Zm7.925 0c0 .3-.1.6-.2.9-.1.3-.301.6-.502.8-.2.2-.501.4-.802.6-.301.1-.703.2-1.104.2-.502 0-.903-.1-1.304-.3-.402-.2-.803-.4-1.104-.7-.2-.3-.401-.6-.602-1-.1-.4-.2-.8-.2-1.3 0-.9.2-1.6.501-2.4.301-.7.702-1.4 1.304-1.9.201-.2.502-.5.803-.7.301-.2.602-.4.903-.5.189-.063.338-.165.473-.257.08-.055.155-.106.23-.143.076-.038.138-.062.19-.082a.527.527 0 0 0 .21-.118l1.405 2c-.06.03-.13.06-.205.093h-.002c-.176.077-.386.168-.595.307-.301.1-.602.3-.903.5-.301.2-.502.5-.703.8-.2.3-.3.6-.3 1 .702 0 1.203.2 1.705.6.501.3.802.9.802 1.6Zm275.698 18.5.301-.3c.29.116.646.365.973.593h.001c.239.167.462.323.631.407-3.21 3.6-6.822 7-9.932 7-1.907 0-3.11-1-3.311-2.5-1.906 1.5-3.812 2.5-5.317 2.5-2.308 0-3.512-1.4-3.311-3.3-2.207 1.9-4.415 3.3-6.421 3.3-3.11 0-4.214-2.6-2.609-5.4l4.916-8.6c1.706-2.8-.902-3.8-6.721 3.5l-5.819 10.1h-3.813l1.405-2.4c-1.906 1.7-3.913 2.8-5.719 2.8-1.906 0-3.11-1-3.311-2.5-1.906 1.5-3.812 2.5-5.317 2.5-2.207 0-3.311-1.3-3.311-3-2.006 1.8-4.113 3-6.019 3-3.11 0-4.214-2.6-2.609-5.4l4.013-7c.502-.8.301-1.6-.2-2.2l-.502-.6-.468.628-.001.002c-2.597 3.481-3.939 5.281-5.551 7.17.039.077.062.138.083.191a.516.516 0 0 0 .118.21c-4.214 4.9-8.126 7.6-12.039 8.8l-2.91 5c-2.708 4.7-8.327 3.9-8.327.3 0-2.9 3.211-4.9 8.327-6.5l1.004-1.7a7.668 7.668 0 0 1-4.114 1.2c-5.417 0-5.919-5.1-3.21-9.7l1.104-2c-3.111-1.6-4.816-4.5-4.816-7.5 0-2.6 1.204-5.2 3.913-7.1l1.204 2.2c-1.606 1.3-2.408 3-2.408 4.8 0 2.1 1.204 4.2 3.411 5.4l5.919-10.2c1.706-2.9 4.214-4.4 6.321-4.4 11.938 0 5.417 18.1-8.127 18.1-.802 0-1.505-.1-2.207-.2l-1.104 1.9c-2.307 3.9-1.806 6.5.803 6.5 3.01 0 5.317-2.6 7.324-6.1l.401-.7h3.712l-4.815 8.2c3.009-1.3 5.718-3.6 8.828-7.2l-.301-.3c2.229-2.577 4.219-5.39 5.832-7.669l.589-.832-.301-.4c-1.304-1.7-1.204-3.9 1.003-5.8l2.007 2.2c-.702.7-.702 1.5-.201 2.2l2.107 2.6c1.204 1.5 1.806 2.8.502 5.1l-3.813 6.6c-.903 1.5-.401 2.1.402 2.1 1.705 0 4.414-2.5 7.123-5.7l.201-.2 3.712-6.3c1.605-2.8 4.514-4.4 6.521-4.4 2.508 0 4.113 2.2 4.013 3.8h1.906l-6.12 10.7c-.903 1.5-.401 2.1.402 2.1 1.705 0 4.414-2.5 7.123-5.7l.301-.3c.2 0 .301.1.401.2l6.12-10.5h3.812l-1.404 2.5c1.906-1.9 3.712-2.8 5.317-2.8 2.107 0 3.612 2.1 2.007 5l-5.518 9.6c-.903 1.5-.402 2.1.401 2.1 1.705 0 4.414-2.5 7.123-5.7l.301-.3s.1.1.201.1l3.712-6.4c1.605-2.8 4.514-4.4 6.521-4.4 1.605 0 2.809.9 3.511 2l5.619-9.6h3.812L282.56 29.7c-.903 1.5-.401 2.1.402 2.1 1.705 0 4.414-2.5 7.123-5.7ZM215.643 8.8c-1.004 0-2.308.9-3.412 2.8l-5.517 9.5h.802c9.932 0 14.146-12.3 8.127-12.3Zm-13.645 31.6c0 1 1.304 1.2 2.107-.2l1.706-3c-2.91 1.1-3.813 2.2-3.813 3.2Zm35.817-8.7c1.505 0 3.812-1.7 6.12-5.3l3.009-5.2c1.907-3.4-2.207-4.3-4.213-.8l-5.318 9.2c-.903 1.5-.401 2.1.402 2.1Zm36.719 0c1.605 0 3.913-1.7 6.22-5.5l2.91-5c1.906-3.4-2.207-4.3-4.214-.8l-5.317 9.2c-.903 1.5-.401 2.1.401 2.1ZM34.954 5.5c7.525 0 7.023 9.6-.702 12.2 7.324 4.9 2.007 18.5-9.33 18.5-13.344 0-15.751-14.6-7.725-19.7l1.505 1.9c-3.712 2.4-4.415 7.8-1.806 11.4.505-.587.869-1.175 1.27-1.822.076-.123.154-.25.235-.378L28.634 9.9c1.706-2.9 4.214-4.4 6.32-4.4ZM19.305 32c1.505.8 3.21 1.3 5.518 1.3 9.23 0 12.741-13.1 3.812-15l-1.003-.1-6.421 11.1c-.602 1-1.204 1.9-1.906 2.7Zm12.741-21.3-3.11 5.3c3.913-.1 6.02-.9 7.524-3.7 1.907-3.6-1.605-6.4-4.414-1.6Zm37.522 23.4c-2.508 0-3.712-1.9-3.11-4.1-2.709 2.3-5.819 4.1-9.03 4.3-3.21 0-5.216-2-5.116-4.6-2.709 2.6-6.12 4.6-9.43 4.6-4.515 0-6.622-3.8-4.214-7.8l4.013-6.8c1.605-2.8 4.013-4.4 7.123-4.4 3.11 0 5.016 2.6 3.01 6.1l-.502.9c-2.91 4.9-7.524 5.4-9.932 4.4l-.401.7c-1.706 3-.302 4.5 2.006 4.5 2.709 0 6.22-2.5 8.929-5.7l.301-.3c.05.05.1.075.15.1.05.025.1.05.151.1l3.812-6.5c1.606-2.8 4.014-4.4 7.124-4.4 3.11 0 5.016 2.6 3.01 6.1l-.502.9h-3.11l.501-.9c2.308-3.9-1.605-4.6-3.812-.8l-3.913 6.8c-1.705 3-.3 4.5 2.007 4.5 2.709 0 6.22-2.5 8.929-5.7l.3-.3c.201.1.402.2.603.4l3.812-6.6c1.605-2.8 4.515-4.4 6.521-4.4 2.508 0 4.114 2.2 4.013 3.8h2.207l-6.12 10.7c-.902 1.5-.4 2.1.402 2.1 1.705 0 4.414-2.5 7.123-5.7l.301-.3c.05.05.1.075.15.1.05.025.1.05.151.1l6.02-10.4h3.812l-7.424 12.9-.032.05c-.506.807-1.354 2.158-.47 2.55.702.3 2.91-1.2 5.82-3.8l6.721-11.8h3.812l-8.126 14.2c-.903 1.5-.401 2.1.401 2.1 1.706 0 4.415-2.5 7.124-5.7l.1-.2-.1-.1c2.82-3.308 5.641-7.231 7.441-9.734l.003-.004c.375-.522.706-.982.983-1.362l2.809 1.5c-1.474 2.938-1.933 6.176-2.343 9.072-.26 1.835-.501 3.532-.968 4.928 1.505-1 3.211-2.5 4.615-4.1l.301-.3h.101l3.712-6.3c1.605-2.8 4.013-4.4 7.123-4.4 3.11 0 5.016 2.6 3.01 6.1l-.502.9c-2.909 4.9-7.524 5.4-9.932 4.4l-.402.7c-1.705 3-.301 4.5 2.007 4.5 2.709 0 6.22-2.5 8.929-5.7l.301-.3c.502.2 1.104.8 1.405 1.3-3.111 3.6-7.425 7-11.739 7-3.11 0-5.016-1.8-5.116-4.3-2.408 2.1-5.117 3.8-7.926 4.2h-.1c-.402.1-.703.1-1.104.1-3.511 0-4.214-3.1-4.214-3.1l2.408-1.2s.502 1.4 1.806 1.4c2.393 0 2.848-3.118 3.321-6.356.24-1.648.485-3.328.993-4.644-.426.547-.89 1.167-1.387 1.833h-.001c-1.141 1.528-2.462 3.296-3.929 4.967 0 .05.025.075.05.1.025.025.05.05.05.1-3.21 3.6-6.822 7-9.932 7-2.408 0-3.612-1.6-3.21-3.6-1.807 1.7-4.114 3.6-6.221 3.6-1.906 0-2.81-1.4-2.408-3.4-2.207 2-4.414 3.4-6.42 3.4-1.907 0-3.11-1-3.311-2.5-1.907 1.5-3.813 2.5-5.318 2.5Zm58.892-12.9c2.307-3.9-1.605-4.6-3.813-.8l-2.407 4.2c1.404.5 3.912.6 5.718-2.5l.502-.9Zm-52.872-.7-5.318 9.2c-.902 1.5-.4 2 .402 2.1 1.505 0 3.812-1.7 6.12-5.3l3.01-5.2c1.906-3.4-2.208-4.3-4.214-.8Zm-25.784.7c2.307-3.9-1.605-4.6-3.813-.8l-2.407 4.2c1.404.5 3.912.6 5.718-2.5l.502-.9ZM175.01 34.1c4.314 0 8.628-3.4 11.739-7-.301-.5-.903-1.1-1.405-1.3l-.301.3c-2.709 3.2-6.22 5.7-8.929 5.7-2.308 0-3.712-1.5-2.007-4.5l.402-.7c2.407 1 7.022.5 9.932-4.4l.502-.9c2.006-3.5.1-6.1-3.01-6.1s-5.518 1.6-7.123 4.4l-3.712 6.3s-.101 0-.101-.1l-.301.3c-2.709 3.2-5.417 5.7-7.123 5.7-.803 0-1.304-.6-.401-2.1l5.518-9.6c1.605-2.9.1-5-2.007-5-1.605 0-3.411.9-5.317 2.9l6.12-10.5h-3.913L152.838 26c-.05-.05-.125-.1-.201-.15-.075-.05-.15-.1-.2-.15l-.301.3c-2.709 3.2-5.418 5.7-7.123 5.7-.803 0-1.305-.6-.402-2.1l8.127-14.2h3.11l1.104-1.8h-3.111l3.612-6.2h-3.812l-3.612 6.2h-3.411l-1.104 1.8h3.512l-7.625 13.2c-1.605 2.8-.502 5.4 2.608 5.4 1.907 0 3.913-1.2 6.02-3l-1.505 2.6h3.813l5.818-10c5.819-7.3 8.428-6.4 6.823-3.6l-4.916 8.6c-1.606 2.8-.502 5.4 2.608 5.4 2.308 0 4.916-1.8 7.324-4.2 0 2.5 1.906 4.3 5.016 4.3Zm3.11-13.7c2.208-3.8 6.12-3.1 3.813.8l-.502.9c-1.806 3.1-4.314 3-5.718 2.5l2.407-4.2Zm-14.848 41.4-.301.3c-2.709 3.2-5.417 5.7-7.123 5.7-.803 0-1.304-.6-.401-2.1l5.518-9.6c1.605-2.9.1-5-2.007-5-1.605 0-3.411.9-5.317 2.8l1.404-2.5h-3.812l-6.12 10.6c-.1-.05-.175-.1-.251-.15-.075-.05-.15-.1-.251-.15l-.301.3c-1.705 1.9-3.812 2.8-5.718 2.8l3.612-6.2c2.307-4 .2-7.7-3.411-7.7-2.91 0-5.217 1.2-7.425 5l-1.906 3.2-1.605 2.8a.514.514 0 0 0-.151-.1l-.027-.014a.424.424 0 0 1-.123-.086l-.301.3c-3.11 3.6-5.819 5.9-8.829 7.2l10.434-17.8h-3.812l-6.722 11.7c-2.91 2.7-5.217 4.2-5.919 3.9-.885-.392-.037-1.743.47-2.55l.031-.05 7.424-12.9h-3.812L110.4 62a.523.523 0 0 0-.15-.1.514.514 0 0 1-.151-.1l-.301.3c-2.709 3.2-5.417 5.7-7.123 5.7-.803 0-1.304-.6-.401-2.1l5.518-9.6c1.605-2.9.1-5-2.007-5-1.605 0-3.411.9-5.317 2.8l1.404-2.5H98.06l-6.12 10.5c-.1-.1-.2-.2-.401-.2l-.301.3c-2.709 3.2-5.418 5.7-7.123 5.7-.803 0-1.305-.6-.402-2.1l6.12-10.7h-2.207c.1-1.6-1.505-3.8-4.013-3.8-2.007 0-4.916 1.6-6.521 4.4l-3.913 6.8c-.301-.2-.602-.4-.803-.5l-.3.3c-2.71 3.2-6.12 5.7-9.833 5.7-2.608 0-4.213-2.6-1.906-6.5l1.104-1.9c.702.1 1.404.2 2.207.2 4.013 0 8.628-2.1 11.638-7.3 1.103-1.9 1.505-3.6 1.505-5.1 0-3.4-2.207-5.7-5.017-5.7-2.106 0-4.615 1.5-6.32 4.4l-5.92 10.2c-2.207-1.2-3.41-3.3-3.41-5.4 0-1.8.802-3.5 2.407-4.8l-1.204-2.2c-2.708 1.9-3.912 4.5-3.912 7.1 0 3 1.705 5.9 4.815 7.5l-1.103 2c-2.709 4.6-1.104 9.7 4.314 9.7 4.213 0 7.424-1.9 10.032-4.4-.802 2.4.402 4.4 3.11 4.4 1.505 0 3.412-1 5.318-2.5.2 1.5 1.404 2.5 3.31 2.5 1.806 0 3.813-1.1 5.72-2.8l-1.405 2.4h3.812l5.819-10.1c5.819-7.3 8.427-6.3 6.722-3.5l-4.916 8.6c-1.605 2.8-.502 5.4 2.608 5.4 2.007 0 4.314-1.4 6.522-3.4-.502 2.1.501 3.4 2.407 3.4 1.806 0 3.913-1.5 5.619-3.1l-2.107 3.6c-5.117 1.5-8.428 3.6-8.428 6.5 0 3.6 5.619 4.4 8.328-.3l2.909-5c3.21-1 6.321-3 9.631-6.2-.501 5.3 6.522 6.5 10.836 1.1h.802c1.405 0 3.311-.5 5.017-1.5l-2.509 4.4h3.813l5.819-10.1c5.819-7.3 8.427-6.3 6.722-3.5l-4.916 8.6c-1.606 2.8-.502 5.4 2.608 5.4 3.11 0 6.722-3.4 9.932-7-.1-.3-.802-.9-1.304-1.1ZM68.564 47.6c1.104-1.9 2.408-2.8 3.411-2.8 1.405 0 2.107.9 2.107 2.3 0 3.5-4.314 9.9-10.233 9.9h-.803l5.518-9.4Zm13.444 14.8c-2.308 3.6-4.615 5.3-6.12 5.3-.803 0-1.304-.6-.401-2.1l5.317-9.2c2.006-3.5 6.12-2.6 4.213.8l-3.01 5.2Zm28.894 13.8c-.803 1.4-2.107 1.2-2.107.2s.903-2.1 3.812-3.2l-1.705 3ZM136.585 62h-.2c-1.204 0-2.208 1-2.208 2.3 0 .5.101.9.402 1.3v.1c-1.806 3.1-6.12 2.5-3.913-1.5l2.91-5 1.805-3.1c2.709-4.5 6.321-2.7 4.013 1.2l-2.809 4.7Zm113.47-.2c.501.1 1.203.7 1.404 1.3-2.809 3.3-6.722 6.4-10.534 7.1h-.101c-.401.1-.702.1-1.103.1-3.512 0-4.214-3.1-4.214-3.1l2.408-1.2s.502 1.4 1.806 1.4c2.393 0 2.848-3.118 3.321-6.356.24-1.648.485-3.328.993-4.644-.411.528-.857 1.123-1.338 1.765-1.159 1.55-2.519 3.368-4.08 5.135-3.21 3.6-6.822 7-9.932 7-3.11 0-3.712-1.7-3.712-4.9v-3l-4.314 7.5h-3.813l2.107-3.7c-2.708 2.3-5.718 4-8.828 4-3.111 0-5.117-1.9-5.117-4.4-2.508 2.5-5.117 4.4-7.525 4.4-2.407 0-3.611-1.6-3.21-3.6-1.806 1.7-4.113 3.6-6.22 3.6-1.605 0-2.508-1-2.508-2.5-1.806 1.3-3.712 2.1-5.619 2.4h-.1c-.401.1-.702.1-1.104.1-3.119 0-4.021-2.446-4.184-2.992a90.88 90.88 0 0 1-2.236 2.692 18.25 18.25 0 0 0-.293-.227c-.426-.327-.868-.667-1.112-1.073 3.511-4 12.24-15.6 13.845-17.8l2.809 1.5c-1.474 2.939-1.933 6.176-2.343 9.072-.26 1.835-.501 3.532-.968 4.928.304-.26.646-.538 1.001-.827l.008-.006.002-.002h.001c.461-.377.945-.77 1.396-1.165l7.424-12.7h3.813l-7.424 12.9-.032.05c-.506.808-1.354 2.159-.47 2.55.702.3 2.909-1.2 5.819-3.8l6.722-11.8h3.812l-8.126 14.2c-.903 1.5-.402 2.1.401 2.1 1.706 0 4.414-2.5 7.123-5.7l.301-.3s.101.1.201.1l3.712-6.4c1.605-2.8 4.013-4.4 7.123-4.4 3.11 0 5.016 2.6 3.01 6.1l-.502.9h-3.11l.502-.9c2.307-3.9-1.605-4.6-3.813-.8l-3.912 6.8c-1.706 3-.301 4.5 2.006 4.5 2.709 0 6.22-2.5 8.929-5.7l.301-.3c.201.1.502.3.702.5l10.836-18.8h3.812l-5.417 9.4c3.912-3.6 9.631-1.6 6.119 4.5l-1.003 1.8c-1.806 3.1-4.615 4.8-7.324 4.5v1.6c0 1.8.803 2.6 1.606 2.6 1.705 0 4.414-2.5 7.123-5.7l.301-.3c2.821-3.307 5.641-7.23 7.441-9.733.377-.525.708-.986.986-1.367l2.809 1.5c-1.474 2.938-1.933 6.176-2.343 9.072-.26 1.835-.501 3.532-.968 4.928 1.505-1 3.211-2.5 4.616-4.1l.301-.3Zm-75.353 5.204 2.215-1.104s.501 1.4 1.805 1.4c2.394 0 2.849-3.117 3.321-6.356.241-1.648.486-3.328.993-4.644-.98 1.354-5.309 6.949-8.334 10.704ZM227.28 58.2l-1.103 1.9c.903 2.5 4.214 1.1 5.317-.9l1.806-3.1c1.405-2.3-1.605-4-6.02 2.1Zm24.079 7.5c-1.204 0-2.207 1-2.207 2.2 0 1.2.903 2.2 2.207 2.2 1.204 0 2.207-.9 2.207-2.2 0-1.2-1.003-2.2-2.207-2.2Zm4.013-1.5h-3.813l11.939-20.7h3.813l-11.939 20.7Zm25.182 1.4c-.101.3-.201.6-.201.9 0 .7.301 1.3.803 1.6.501.4 1.003.6 1.705.6 0 .4-.1.7-.301 1-.201.3-.401.6-.702.8-.301.2-.602.4-.903.5-.21.14-.42.23-.596.306-.076.033-.146.064-.207.094l1.405 2a.527.527 0 0 1 .21-.118c.053-.02.115-.044.191-.082a1.92 1.92 0 0 0 .229-.143c.135-.092.285-.194.473-.257.301-.1.602-.3.903-.5.301-.2.602-.5.803-.7.602-.5 1.003-1.2 1.304-1.9.301-.8.502-1.5.502-2.4 0-.5-.1-.9-.201-1.3-.042-.084-.079-.163-.115-.238-.136-.287-.249-.525-.487-.762-.301-.3-.702-.5-1.103-.7-.402-.2-.803-.3-1.305-.3-.401 0-.802.1-1.103.2h-.001c-.301.2-.601.4-.802.6-.2.2-.401.5-.501.8Zm-7.826 0c-.1.3-.201.6-.201.9 0 .7.201 1.3.803 1.6.502.4 1.003.6 1.706.6 0 .4-.101.7-.301 1-.201.3-.402.6-.703.8-.301.2-.602.4-.903.5-.301.2-.501.3-.802.4l1.404 2a.527.527 0 0 1 .21-.118c.053-.02.115-.044.192-.082.074-.037.149-.088.229-.143.135-.092.284-.194.473-.257.301-.1.602-.3.903-.5.301-.2.602-.5.803-.7.602-.5 1.003-1.2 1.304-1.9.301-.8.501-1.5.501-2.4 0-.5-.1-.9-.2-1.3-.201-.4-.402-.7-.602-1-.301-.3-.702-.5-1.104-.7-.401-.2-.802-.3-1.304-.3-.401 0-.803.1-1.104.2-.301.2-.602.4-.802.6-.201.2-.402.5-.502.8Z" fill="#fff"/></svg>