<svg width="189" height="45" fill="none" xmlns="http://www.w3.org/2000/svg"><path fill-rule="evenodd" clip-rule="evenodd" d="M28.532 0h7.725l-1.204 44.9H20.506L18.5 26.4l-2.007 18.5H1.845L.742 0h7.625l.601 37.2h.803L14.687 0h7.625l4.916 37.2h.802L28.532 0Zm31.904 37.2V45H39.468V0h20.968v7.7H47.093v10.8h10.634v7.7H47.093v10.9h13.343v.1Zm21.47 7.8v-7.8H71.17V0h-7.625v45h18.36Zm16.253-16.6 7.725-1.8v13.6c0 2.6-2.207 4.7-4.715 4.7H89.631c-2.609 0-4.715-2.2-4.715-4.7V4.7c0-2.6 2.106-4.7 4.715-4.7h11.538c2.508 0 4.715 2.1 4.715 4.7v9.1l-7.725 1.8v-8H92.64v29.5h5.518v-8.7Zm33.308-23.7c0-2.6-2.207-4.7-4.715-4.7h-11.538a4.702 4.702 0 0 0-4.715 4.7v35.4c0 2.5 2.107 4.7 4.715 4.7h11.538c2.508 0 4.715-2.1 4.715-4.7V4.7Zm-13.243 3h5.518v29.5h-5.518V7.7ZM156.549 0h7.624v44.9h-7.624V22.8l-3.11 11.4h-7.525l-3.01-11.4v22.1h-7.625V0h7.625l6.822 21.7L156.549 0Zm32.405 45V37.1h-13.343V26.2h10.634v-7.7h-10.634V7.7h13.343V0h-20.968v45h20.968Z" fill="#81B3D3"/></svg>