<svg xmlns="http://www.w3.org/2000/svg">
	<symbol viewBox="0 0 185 96" id="logo-icon">
		<path fill="#81B3D3" d="M185 0H0l79.81 90.101c7.039 7.865 18.44 7.865 25.479 0L185 0Z" />
		<path fill="#23A9E1" d="M42.83.697 92.004 58.84l48.878-57.745L42.83.697Z" />
		<path fill="#fff" d="M120.954 17.224c-5.056 0-10.013.1-15.07.1 5.949-6.87 8.626-6.173 15.07-.1ZM80.107 22.6h26.471c-1.983-1.195-6.642-7.069-9.22-4.879-.198.2-7.436-8.86-12.195-4.48-4.163 3.784-6.047-.497-10.806 2.49-5.255 3.583 3.172 5.674 5.75 6.869Z" />
		<path fill="#491213" d="M92.302 0H41.838v22.4l50.166 61.23.298-.398 50.265-60.134V0H92.302ZM54.429 1.792h5.453v17.124l-5.453-6.471V1.792Zm-.793 9.757L48.68 5.675V1.792h4.957v9.757ZM72.771 8.86 67.12 1.792h5.65v7.069Zm-6.544 3.783L60.675 1.792h5.552v10.852Zm-5.65-9.259 5.452 10.653c-2.776 2.09-4.66 3.982-5.453 4.878V3.385Zm6.443-.498 5.552 6.87a41.788 41.788 0 0 0-3.073 1.891 53.637 53.637 0 0 0-2.479 1.793V2.886Zm6.544-.199 4.759 4.182c-1.686.696-3.272 1.493-4.76 2.29V2.687Zm5.552 3.883-5.354-4.779h5.949v4.58c-.298 0-.397.1-.595.199Zm18.936-4.779h4.957l-4.957 2.39v-2.39Zm-5.75 0h4.362l-4.362 2.09v-2.09Zm-.893 1.991-4.164-1.99h4.164v1.99Zm-5.452.498L80.9 1.792h5.057v2.489Zm-5.552-1.892 4.66 2.29c-1.587.399-3.173.797-4.66 1.295V2.389Zm6.345 0 3.37 1.593c-1.19.1-2.28.2-3.47.399V2.389h.1Zm10.31.1v1.892c-1.09-.2-2.18-.3-3.37-.399l3.37-1.493Zm6.445-.1v3.684c-1.487-.498-3.074-.995-4.759-1.394l4.759-2.29Zm.694-.597h5.849l-5.353 4.779c-.199-.1-.298-.1-.496-.2V1.793Zm13.483 0h5.552l-5.552 10.852V1.792Zm-6.543 0h5.651l-5.651 6.97v-6.97Zm-.793.896V9.16c-1.487-.796-3.074-1.593-4.759-2.29l4.759-4.18Zm6.543.2V13.34c-.694-.498-1.487-.996-2.28-1.593-.992-.697-2.181-1.394-3.371-2.09l5.651-6.77Zm6.345.497v15.133c-1.09-.996-2.875-2.688-5.453-4.58l5.453-10.553Zm.793 15.93V1.791h5.453v11.35l-5.453 6.172c.099.1 0 .1 0 0Zm6.246-17.523h4.957v4.68l-4.957 5.774V1.792Zm-82.288 0V4.68l-2.479-2.887h2.479Zm12.69 18.12.1.1s3.569-3.883 9.12-7.567c5.255-3.485 13.187-7.567 22.11-7.467 8.823 0 16.953 4.181 22.108 7.666 5.552 3.684 9.22 7.467 9.319 7.566l-3.866 4.48c-6.841.897-11.798 6.074-18.441 4.979-3.37-.598-3.47-2.49-4.461-4.48-.694-1.494-1.884-1.295-3.47-1.892-1.388-.598-2.28-1.693-5.155-1.095-2.479.597-2.776 4.48-5.949 4.28-1.685-.099-1.785-2.488-4.164-5.475-6.246-7.567-12.095-6.471-16.061.498l30.04 35.742-31.23-37.335Zm75.249-14.436V1.792h3.173l-3.173 3.684Z" />
		<path fill="#23A9E1" d="m87.94 70.588 4.064-6.472 3.966 6.472-3.966 6.47-4.065-6.47Z" />
		<path fill="#fff" d="M64.938 32.158c.496.597.893 1.294.793 2.09-.099.598-.892 1.593-.297 1.792.694-.896 1.487-1.891 2.181-2.787-.595-.2-5.353-5.775-5.353-6.472-1.091.598-2.083 1.195-3.173 1.693.198.697 1.289 0 1.884 0 .793.1 1.388.597 1.983 1.195-1.686 1.393-5.85 4.978-6.346 5.077-.198 0-1.09-.597-1.09-.1 0 .3.892.996.991 1.195.694.896 1.487 1.792 2.181 2.688.595-.298-.099-.697.199-1.194.297-.398 4.858-4.281 6.047-5.177ZM59.684 25.189c.396-.1.595.398.991-.1-.793-.996-1.586-1.892-2.38-2.887-.396-.399-.792-.896-.693 0 .099.597-6.048 5.675-6.444 5.774-.496.2-.794-.398-1.091.1.694.896 1.487 1.692 2.181 2.588.198.299.496.598.694.896.297.299.198-.697.198-.597-.099-.498.496-.896.893-1.195 1.487-1.294 5.254-4.58 5.65-4.58ZM50.96 24.293c-1.785.497-3.669-.2-4.165-1.992-.495-1.792.595-3.783 2.082-4.779 1.388-.995 3.57-.995 4.363.797.297.796.198 1.692-.1 2.489-.198.498-.594.995.1 1.294.892-1.095 1.685-2.19 2.577-3.285-1.09-.598-1.487-1.693-2.28-2.589-.892-1.095-2.082-2.09-3.47-2.29-2.875-.398-5.552 2.589-5.75 5.177-.1 1.494.396 2.788 1.19 3.983.793.995 1.883 1.593 2.379 2.787.297.1 2.677-.995 3.272-1.294-.1-.1-.1-.199-.199-.299-.694.2 0 0 0 0ZM89.922 60.532c-1.19-.796-3.965-4.68-4.56-5.277-.1-.1-.198-.298-.298-.398 0 0-.297.2-.198.2-.198.099.1.597-.1.895-.792 1.195-5.75 4.978-5.948 5.177-.594.399-1.19-.199-1.487.3.694.895 2.776 3.484 2.974 3.583.496.1.1-.796.199-.995.099-.399 2.578-2.39 3.47-3.186.297-.299.694.398.892.697.297.497.496.995.297 1.593-.099.398-.694.896-.297 1.194.595-.697 2.38-2.787 2.578-2.986.297-.3-.595 0-.496-.1-.397.2-.694.2-1.09 0-.1-.1-1.091-1.095-.992-1.195.397-.398.991-.995 1.487-1.095.892-.199 1.586 1.493 1.686 2.09.099.598.099 1.195-.1 1.793-.099.398-.495.697 0 .896.694-.996 1.388-1.892 2.082-2.887.199-.2 0-.299-.099-.299-.099-.1.199 0 0 0ZM79.81 56.35c2.18-1.891 2.478-5.077.793-7.267-1.884-2.49-5.354-3.087-7.733-1.095-2.181 1.891-2.479 4.977-.793 7.267 1.983 2.688 5.155 2.987 7.733 1.095 1.19-.895-.1.1 0 0Zm-.496-4.679c-.595 1.494-2.181 3.087-3.668 3.684-1.785.697-3.074-.796-2.38-2.589.694-1.493 2.181-3.086 3.669-3.683 1.883-.697 3.073.896 2.379 2.588-.396.896.1-.199 0 0ZM73.465 41.815c.495.1.892.498 1.288 0-.694-.896-1.487-1.792-2.18-2.589-.595.299 0 .498-.199.996-.198.398-2.578.796-3.172.896.198-.597.892-2.589 1.19-2.788.495-.398.892.398 1.288-.1l-2.677-3.285c-.297-.398-.595-.995-.991-.697 0 0 0 1.494-.1 1.693-.099.199-.892 3.584-1.883 4.48-.496.398-2.181 1.892-2.677 2.09-.496.2-.793-.597-1.19 0 .794.996 1.686 1.992 2.479 2.988.1.1.595.896.793.896.496.1.1-.896.1-1.096.197-.398 2.478-2.688 3.47-2.887 1.189-.199 2.974-.697 4.46-.597.298.1-.396 0 0 0Z" />
		<path fill="#DC6243" d="M67.219 22.8c-3.966-.2-2.38-3.983.396-4.78 2.578-.796 8.03 1.693 9.716 3.385-2.776.896-6.345.697-9.32.896-.197-3.186-.99-2.09-.792.498ZM76.637 35.244c-8.526-.1-2.776-13.241.1-12.445 3.37 1.095 2.974 12.544-.1 12.445ZM82.685 30.963c-.793 2.489-2.38 2.987-2.181-.1.198-3.484 2.478-2.688 4.858-3.982 1.983-1.095 3.073-5.177 6.543-2.788 1.586 1.096 3.371.2 3.867 1.792 0-.1-4.462 10.255-1.983 10.255-4.957 0-2.776-5.874-.892-9.856-1.785.896-4.76 6.67-2.38 7.566-1.289 1.693-5.155 3.883-7.138 2.29-1.487-1.095-.694-3.186-.694-5.177ZM86.75 40.52c-3.47.996-8.03-1.194-2.479-2.29 3.47-.696 7.138.698 2.479 2.29.099 0-.1 0 0 0ZM91.112 40.421c-.694-1.693.595-3.584 2.677-2.19 1.784 1.194-.892 3.086-2.677 2.19ZM88.138 45c-2.38-.696-10.41-.597-5.156-2.787 1.686-.597 10.113.2 5.156 2.788ZM98.548 48.286c-1.388-1.194-2.876-1.294-4.164 0-1.785-3.285-8.23-2.19-11.302-2.688 1.586 4.082 14.672 4.879 15.466 2.688ZM96.664 50.775c-3.173-.1-6.643-.597-9.518.1 1.884.498 6.345 1.792 2.181 2.887 1.488 2.19 3.966 1.991 5.552.1-.694-.3-.991-.697-1.586-1.096 1.586-.298 3.173-1.194 3.371-1.99ZM100.233 46.892c-5.254-3.086-3.966-5.376.397-7.566 2.28-1.095 7.237-5.177 9.319-3.883-3.272 3.883-6.543 7.666-9.716 11.45Z" />
		<path fill="#F49774" d="M96.466 39.625c-4.462-4.58 6.642-4.182 8.427-5.775 1.289.398 10.707-8.263 12.987-7.666-1.685 1.892-5.155 8.064-7.733 8.064-1.982 0-3.965-.298-5.452 1.096-2.182 2.09-5.85 3.086-8.23 4.28Z" />
		<path fill="#F4B1A4" d="M97.953 34.05c-2.479 1.294-4.759-3.884-.496-3.386 2.776.299 5.651-.199 8.229.2-1.983 2.29-4.66 3.583-7.733 3.185Z" />
		<path fill="#fff" d="M110.445 52.269c.198.597.297 1.294.198 1.99-.099.897-.991 2.888-2.181 2.29-1.19-.597-2.181-1.692-3.173-2.588.794-.896 1.488-1.692 2.876-1.294.396.1.694 0 .297-.299-.397-.199-3.073-1.991-3.272-1.792-.297.299.496.896.199 1.493-.199.399-.595.797-.893 1.195-.694-.597-1.883-1.294-1.09-2.29.495-.697 1.289-1.194 2.082-1.294.595-.1 1.784.398 1.983-.2-1.091-.497-2.182-.995-3.272-1.592.198.797-3.272 4.48-4.065 5.476-.099.1-.694.597-.694.796 0 .399.595.1.694.1.496-.2 6.742 5.077 6.94 5.476.099.298-.198.597 0 .697 0 0 .198.199.297.199.397-.498 4.462-5.974 5.354-6.173-.793-1.195-1.586-2.39-2.379-3.684-.595.299 0 .996.099 1.494ZM104.298 58.94c-2.082-1.295-5.552 1.293-6.048 1.492-.991.498-1.784-.497-1.289-1.493.496-.796 1.388-1.195 2.28-1.294.298 0 1.29.199 1.488 0 .099-.2.198-.2 0-.299-.892-.597-1.686-1.195-2.578-1.692-.198 1.095-1.388 1.692-2.082 2.389-.793.896-1.487 1.892-1.487 3.186 0 1.095.694 2.09 1.685 2.688 1.091.597 2.28.1 3.272-.498.595-.398 1.289-.896 1.884-1.194.991-.498 2.28-.1 1.983 1.294-.298 1.095-1.388 2.09-2.38 2.29-.595.199-1.289.1-1.883-.1-.397-.1-.992-.697-1.19-.1 1.19.797 2.28 1.693 3.47 2.49.099-.797.496-1.096 1.09-1.593a13.288 13.288 0 0 0 1.983-2.091c1.19-1.693 1.587-4.082-.198-5.476Z" />
		<path fill="#fff" d="M104.298 58.94c.991.596-.595-.499 0 0ZM140.683 19.514c-.694.697-8.328-2.29-8.923-2.788-.297-.1-.297-1.294-.694-.796l-1.189 1.493c-.397.498-.793.996-1.289 1.493-.298.299-.496.498 0 .697.793-.398 5.354 7.268 4.957 8.463-.694.398-6.841-5.078-7.039-5.377-.099-.1.297-.995-.198-.896-.199 0-.694.896-.893 1.096-.297.398-.595.697-.892 1.095.297.498.496 0 .991 0 .397.1 1.785 1.294 2.182 1.692-.694 0-2.677.1-2.876.1-.892.1-.396-.697-.991-.896-.793.896-1.487 1.792-2.28 2.787-.397.498-.893 1.096-1.289 1.593-.099.1 0 0 0 .1.297.299.099.2.595 0 .495-.2 6.543 4.878 6.741 5.177.397.398-.198.996.397 1.195.595-.697 1.19-1.494 1.785-2.19.099-.1.099-.1 0-.2-.397-.398-.496.2-.992.2-.496-.1-4.362-3.386-5.849-4.58 1.784-.1 7.237-.299 8.129-.299.298 0 1.091.896 1.091 1.195-.099.398-.496.597.099.796.496-.597.992-1.095 1.487-1.692l.199-.299c.099-.1.099-.1.198-.299l.198-.199c.397-.498 1.785-1.99 1.586-2.09-.495-.399-.694.497-1.288-.1-.298-.2-1.19-1.792-1.388-2.19-.298-.399.594-.896.991-1.096.793-.497 3.173-1.194 3.47.3 0 .298-.297.497-.099.696 0 0 .198.2.297.2.199-.2 2.38-2.788 3.272-3.983a2.729 2.729 0 0 1-.496-.398Zm-7.336 2.19c.099 0 .198-.1 0 0-.298.199-.694.498-.992.796-.495-.896-.991-1.792-1.586-2.688 1.19.498 2.379.996 3.47 1.494-.198.1-.496.199-.892.398ZM123.73 32.855c-2.38-1.992-5.552-1.394-7.535.796-1.884 2.29-1.685 5.675.595 7.566 2.28 1.892 5.651 1.394 7.535-.796 1.883-2.29 1.784-5.675-.595-7.566Zm-.298 6.57s0 .1 0 0c-1.288 1.295-3.37.1-4.461-.697-1.091-.796-3.073-2.588-1.884-4.081 1.091-1.295 3.074-.2 4.164.497 1.19.797 3.371 2.589 2.281 4.182l-.1.1Z" />
		<path fill="#fff" d="M123.73 32.855c1.19.995-.298-.2 0 0ZM123.432 39.526c0-.1 0-.1 0 0l.1-.1c-.1 0-.1.1-.1.1ZM117.186 41.914c.1.1.298.3 0 0-2.875-2.19-6.245-1.593-8.427 1.096a9395.1 9395.1 0 0 1-2.974 3.584c.397.498.793-.1 1.289.199.397.299 6.147 5.077 6.246 5.376.198.498-.297.498.099.896.198.1 4.461-5.177 4.858-6.173.892-1.792.297-3.683-1.091-4.978Zm-1.288 6.77c-.199.3 0 .1-.694.697-.298.3-6.345-4.679-6.147-4.878.793-.896 2.578-1.593 3.569-1.294 2.181.497 5.155 3.186 3.272 5.475Z" /> </symbol>
	<symbol viewBox="0 0 461 350" id="sedona-main-icon">
		<path fill-rule="evenodd" clip-rule="evenodd" d="M165.739 69.9996L165.539 70.1996C164.134 71.6996 162.529 72.3996 161.024 72.3996L163.833 67.4996C165.639 64.3996 163.933 61.3996 161.124 61.3996C158.817 61.3996 157.011 62.2996 155.305 65.2996L153.8 67.8996L152.596 69.9996L152.396 70.1996C150.189 72.6996 148.082 74.6996 146.777 74.6996C146.075 74.6996 145.774 74.1996 146.477 73.0996L152.897 61.8996H155.305L156.208 60.4996H153.7L156.509 55.5996H153.499L150.69 60.4996H147.981L147.078 61.8996H149.787L143.768 72.2996C142.463 74.4996 143.366 76.5996 145.774 76.5996C147.48 76.5996 149.486 75.2996 151.292 73.4996C151.292 77.2996 156.609 78.0996 159.82 73.9996H160.522C162.328 73.9996 165.137 72.8996 166.642 71.0996C166.642 70.5996 166.141 70.1996 165.739 69.9996ZM159.318 70.1996H159.218C158.215 70.1996 157.412 70.9996 157.412 71.9996C157.412 72.3996 157.512 72.6996 157.713 72.9996V73.0996C156.309 75.4996 152.897 75.0996 154.603 71.8996L156.91 67.9996L158.315 65.5996C160.422 61.9996 163.331 63.3996 161.525 66.4996L159.318 70.1996ZM207.375 69.9996L207.174 70.1996C204.967 72.6996 202.258 74.6996 200.151 74.6996C198.345 74.6996 197.242 73.4996 198.546 71.0996L198.847 70.5996C200.753 71.3996 204.465 70.9996 206.672 67.0996L207.074 66.3996C208.679 63.5996 207.174 61.5996 204.666 61.5996C202.258 61.5996 200.352 62.8996 199.048 65.0996L196.138 70.0996L195.938 70.2996C193.73 72.7996 191.623 74.7996 190.319 74.7996C189.617 74.7996 189.316 74.2996 190.018 73.1996L194.332 65.5996C195.637 63.2996 194.433 61.6996 192.727 61.6996C191.423 61.6996 190.018 62.3996 188.513 63.9996L193.329 55.6996H190.319L181.992 69.9996L181.791 70.1996C179.584 72.6996 177.477 74.6996 176.173 74.6996C175.471 74.6996 175.17 74.1996 175.872 73.0996L182.293 61.8996H184.701L185.604 60.4996H183.096L185.905 55.5996H182.895L180.086 60.4996H177.377L176.474 61.8996H179.183L173.163 72.2996C171.859 74.4996 172.762 76.5996 175.17 76.5996C176.374 76.5996 177.678 75.9996 178.982 74.9996L178.18 76.2996H181.19L185.704 68.3996C190.319 62.5996 192.326 63.3996 191.122 65.5996L187.209 72.3996C185.905 74.5996 186.808 76.6996 189.216 76.6996C191.022 76.6996 193.028 75.2996 194.834 73.4996C194.934 75.3996 196.539 76.6996 198.947 76.6996C202.358 76.6996 205.77 74.0996 208.177 71.1996C208.278 70.5996 207.776 70.1996 207.375 69.9996ZM201.656 65.7996C203.362 62.7996 206.472 63.2996 204.666 66.3996L204.265 67.0996C202.86 69.4996 200.854 69.4996 199.75 69.0996L201.656 65.7996ZM316.63 70.2L316.831 70C317.332 70.1 317.834 70.6 317.934 71.1C315.727 73.7 312.717 76.1 309.607 76.5H309.507C309.206 76.6 309.005 76.6 308.704 76.6C305.895 76.6 305.394 74.2 305.394 74.2L307.3 73.2C307.3 73.2 307.701 74.3 308.704 74.3C310.627 74.3 310.972 71.8542 311.333 69.3006C311.518 67.9902 311.707 66.6513 312.115 65.6C311.763 66.0472 311.369 66.5659 310.942 67.1299L310.941 67.1301L310.94 67.1321C310.029 68.3332 308.961 69.7397 307.801 71.1C305.293 74 302.484 76.6 299.976 76.6C298.07 76.6 297.066 75.3 297.367 73.7C295.963 75.1 294.057 76.6 292.451 76.6C290.746 76.6 290.044 75.2 290.846 73.1C289.743 73.7 288.438 74 287.535 74H286.833C283.623 78.1 278.205 77.3 278.305 73.4C276.299 75.2 273.791 76.6 271.383 76.6C268.875 76.6 267.37 75.3 267.27 73.4C264.761 75.8 262.354 77.2 259.946 78L257.638 81.9C255.431 85.6 251.017 85 251.017 82.1C251.017 79.9 253.625 78.2 257.638 77L258.34 75.8C257.237 76.4 256.234 76.8 255.431 76.8C253.725 76.8 252.823 75.8 252.823 74.4C251.217 75.8 249.512 76.8 248.007 76.8C245.599 76.8 244.696 74.7 246 72.5L249.211 67C249.512 66.4 249.411 65.8 249.01 65.3L248.609 64.8C246.201 68 244.997 69.5 243.592 71.2C242.088 73 239.278 74.1 237.473 74.1H236.77C233.56 78.2 228.243 77.4 228.243 73.6C225.734 75.9 223.427 77.4 221.019 78.1L218.712 82C216.504 85.7 212.09 85.1 212.09 82.2C212.09 80 214.698 78.3 218.712 77.1L219.514 75.7C218.411 76.3 217.407 76.7 216.605 76.7C214.197 76.7 213.294 74.6 214.598 72.4L218.812 65.1C220.016 62.9 222.323 61.6 223.928 61.6C225.734 61.6 227.039 63.3 227.039 64.5H228.845L222.123 76C224.53 75 226.637 73.2 229.145 70.3L229.346 70.1L230.55 68L232.055 65.4C233.76 62.4 235.566 61.5 237.874 61.5C240.683 61.5 242.389 64.5 240.583 67.6L237.774 72.5C239.278 72.5 240.884 71.8 242.288 70.3L242.489 70.1C244.495 67.8 246.301 65.3 247.606 63.4L247.305 63.1C246.301 61.7 246.402 60 248.107 58.5L249.712 60.2C249.11 60.7 249.11 61.4 249.512 61.9L251.217 63.9C252.12 65.1 252.622 66.2 251.619 68L248.609 73.2C247.907 74.3 248.208 74.8 248.91 74.8C250.214 74.8 252.321 72.8 254.528 70.3L254.729 70.1L257.638 65.1C258.842 62.9 261.15 61.6 262.755 61.6C264.561 61.6 265.865 63.3 265.865 64.5H267.671L260.949 76C263.357 75 265.464 73.2 267.972 70.3L268.172 70.1L271.082 65.1C272.386 62.9 274.292 61.6 276.7 61.6C279.208 61.6 280.713 63.6 279.108 66.4L278.707 67.1C276.5 71 272.788 71.4 270.881 70.6L270.58 71.1C269.276 73.5 270.38 74.7 272.186 74.7C274.292 74.7 277.001 72.7 279.208 70.2L279.409 70L280.613 67.9L282.118 65.3C283.823 62.3 285.629 61.4 287.937 61.4C290.746 61.4 292.451 64.4 290.646 67.5L287.836 72.4C289.341 72.4 290.947 71.7 292.351 70.2L292.552 70L297.267 61.9H300.277L294.458 72.1L294.421 72.164L294.372 72.2487C293.967 72.9466 293.402 73.9205 294.057 74.2C294.659 74.4 296.364 73.3 298.672 71.2L303.989 61.9H306.999L300.578 73.1C299.876 74.2 300.177 74.7 300.879 74.7C302.183 74.7 304.29 72.7 306.497 70.2L306.698 70C309.296 67.0408 311.807 63.4831 313.123 61.62L313.134 61.6036C313.237 61.4583 313.332 61.3233 313.42 61.2L315.627 62.4C314.48 64.7455 314.132 67.2356 313.819 69.4789C313.611 70.9657 313.418 72.3441 313.018 73.5C314.222 72.6 315.527 71.5 316.63 70.2ZM276.801 66.4C278.606 63.3 275.496 62.8 273.791 65.8L271.885 69.1C272.988 69.5 274.995 69.5 276.399 67.1L276.801 66.4ZM214.799 81.5C214.799 82.4 215.802 82.5 216.404 81.4L217.809 78.9C215.501 79.8 214.799 80.7 214.799 81.5ZM217.508 73.1C216.805 74.2 217.106 74.7 217.809 74.7C219.013 74.7 220.919 73.3 222.725 70.4L225.032 66.4C226.537 63.7 223.327 63 221.721 65.8L217.508 73.1ZM236.168 70.2H236.269L238.476 66.5C240.282 63.4 237.372 62 235.265 65.6L233.861 68L231.553 71.9C229.848 75.1 233.259 75.5 234.663 73.1V73C234.463 72.7 234.362 72.4 234.362 72C234.362 71 235.165 70.2 236.168 70.2ZM253.525 81.5C253.525 82.4 254.528 82.5 255.13 81.4L256.535 78.9C254.227 79.8 253.525 80.7 253.525 81.5ZM256.234 73.1C255.531 74.2 255.832 74.7 256.535 74.7C257.739 74.7 259.645 73.3 261.451 70.4L263.758 66.4C265.263 63.7 262.053 63 260.447 65.8L256.234 73.1ZM286.031 70.2H286.131L288.338 66.5C290.144 63.4 287.234 62 285.128 65.6L283.723 68L281.416 71.9C279.71 75.1 283.121 75.5 284.526 73.1V73C284.325 72.7 284.225 72.4 284.225 72C284.225 71 285.027 70.2 286.031 70.2ZM130.525 66.7998H101.53V68.7998H130.525V66.7998ZM329.271 66.7998H358.266V68.7998H329.271V66.7998Z" fill="#766458" />
		<path fill-rule="evenodd" clip-rule="evenodd" d="M163.532 0H171.257L170.053 44.9H155.506L153.499 26.4L151.493 44.9H136.845L135.742 0H143.367L143.968 37.2H144.771L149.687 0H157.312L162.228 37.2H163.03L163.532 0ZM195.436 37.2V45H174.468V0H195.436V7.7H182.093V18.5H192.727V26.2H182.093V37.1H195.436V37.2ZM216.906 45V37.2H206.171V0H198.546V45H216.906ZM233.159 28.4L240.884 26.6V40.2C240.884 42.8 238.677 44.9 236.169 44.9H224.631C222.023 44.9 219.916 42.7 219.916 40.2V4.7C219.916 2.1 222.023 0 224.631 0H236.169C238.677 0 240.884 2.1 240.884 4.7V13.8L233.159 15.6V7.6H227.641V37.1H233.159V28.4ZM266.467 4.7C266.467 2.1 264.26 0 261.752 0H250.214C247.606 0 245.499 2.1 245.499 4.7V40.1C245.499 42.6 247.606 44.8 250.214 44.8H261.752C264.26 44.8 266.467 42.7 266.467 40.1V4.7ZM253.224 7.7H258.742V37.2H253.224V7.7ZM291.549 0H299.173V44.9H291.549V22.8L288.439 34.2H280.914L277.904 22.8V44.9H270.279V0H277.904L284.726 21.7L291.549 0ZM323.954 45V37.2V37.1H310.611V26.2H321.245V18.5H310.611V7.7H323.954V0H302.986V45H323.954Z" fill="#81B3D3" />
		<path fill-rule="evenodd" clip-rule="evenodd" d="M246.101 215.7C270.179 215.7 287.636 198.6 287.636 174.4C287.636 151.8 267.671 135.9 246.101 135.9C224.531 135.9 204.566 151.8 204.566 174.4C204.566 198.6 222.022 215.7 246.101 215.7ZM246 196.8C234.363 196.8 224.832 187.4 224.832 174.5C224.832 164.2 234.463 154.7 246 154.7C257.638 154.7 267.169 164.2 267.169 174.5C267.169 187.4 257.638 196.8 246 196.8ZM31.5025 152.6C36.3182 152.6 40.8329 154.6 44.4446 157.6L52.1698 142.6C45.5482 138.8 36.2178 136.4 28.6934 136.4C13.6444 136.4 2.80914 146.3 2.80914 161.5C2.80914 176 10.8353 179.1 23.0751 182.7C23.3156 182.769 23.5672 182.839 23.8278 182.912L23.8316 182.913C28.1382 184.119 34.9136 186.016 34.9136 191.2C34.9136 196.4 30.0979 198.7 25.4829 198.7C18.761 198.7 13.0424 195.3 8.12644 191L0 206.5C7.62481 211.8 16.9552 215 26.3859 215C33.9103 215 41.7358 213 47.6551 208C53.5743 203 55.3802 195.3 55.3802 187.9C55.3802 175.8 47.2538 170.6 36.8198 167.5L31.8035 166C28.4927 165 23.1754 163.3 23.1754 158.9C23.1754 154.7 27.8908 152.6 31.5025 152.6ZM91.899 167.3V154.8L115.175 154.9V138.4H72.4357V213.2H115.175V196.7H91.899V183.8H113.87V167.3H91.899ZM129.622 138.4H157.312C178.18 138.4 195.436 154.8 195.436 175.8C195.436 196.8 178.079 213.2 157.312 213.2H129.622V138.4ZM149.185 196.7H153.6C165.238 196.7 175.17 190.3 175.17 175.8C175.17 162.4 166.341 154.9 153.8 154.9H149.185V196.7ZM297.97 138.4H317.533L353.249 184.2H353.45V138.4H373.014V213.2H353.45L317.734 167.3H317.533V213.2H297.97V138.4ZM403.212 213.2L408.429 200.2H435.317L440.233 213.2H461L432.708 138.4H411.439L382.545 213.2H403.212ZM421.873 161.5H422.073L430.1 185.3H413.847L421.873 161.5Z" fill="white" />
		<path fill-rule="evenodd" clip-rule="evenodd" d="M80.4617 277.6C80.4617 277.9 80.3614 278.2 80.261 278.5C80.1607 278.8 79.9601 279.1 79.7594 279.3C79.5588 279.5 79.258 279.7 78.9571 279.9L78.9568 279.9C78.6558 280 78.2545 280.1 77.8532 280.1C77.3516 280.1 76.9503 280 76.549 279.8L76.5487 279.8C76.1475 279.6 75.7463 279.4 75.4454 279.1C75.2072 278.863 75.0947 278.625 74.9587 278.339C74.9228 278.263 74.8853 278.184 74.8434 278.1C74.7431 277.7 74.6428 277.3 74.6428 276.8C74.6428 275.9 74.8434 275.2 75.1444 274.4C75.4454 273.7 75.8467 273 76.4486 272.5C76.6493 272.3 76.9503 272 77.2512 271.8C77.5522 271.6 77.8532 271.4 78.1542 271.3C78.3431 271.237 78.4925 271.135 78.6272 271.043C78.7071 270.988 78.7818 270.937 78.8565 270.9C78.9331 270.862 78.9951 270.838 79.0481 270.818C79.1338 270.786 79.1958 270.762 79.2578 270.7L80.6623 272.7C80.602 272.73 80.5326 272.76 80.4569 272.793L80.4552 272.794C80.2794 272.87 80.0696 272.961 79.8597 273.1C79.5588 273.2 79.2578 273.4 78.9568 273.6C78.6558 273.8 78.4552 274.1 78.2545 274.4C78.0539 274.7 77.9535 275 77.9535 275.4C78.6558 275.4 79.1574 275.6 79.6591 276C80.261 276.3 80.4617 276.9 80.4617 277.6ZM88.3875 277.6C88.3875 277.9 88.2872 278.2 88.1868 278.5C88.0865 278.8 87.8858 279.1 87.6852 279.3C87.4846 279.5 87.1838 279.7 86.8829 279.9L86.8826 279.9C86.5816 280 86.1803 280.1 85.779 280.1C85.2774 280.1 84.8761 280 84.4748 279.8C84.0734 279.6 83.6721 279.4 83.3712 279.1C83.1705 278.8 82.9699 278.5 82.7692 278.1C82.6689 277.7 82.5686 277.3 82.5686 276.8C82.5686 275.9 82.7692 275.2 83.0702 274.4C83.3712 273.7 83.7725 273 84.3744 272.5C84.5751 272.3 84.8761 272 85.177 271.8C85.478 271.6 85.779 271.4 86.08 271.3C86.2689 271.237 86.4183 271.135 86.553 271.043C86.6329 270.988 86.7076 270.937 86.7823 270.9C86.8589 270.862 86.9209 270.838 86.9739 270.818C87.0596 270.786 87.1216 270.762 87.1836 270.7L88.5881 272.7C88.5278 272.73 88.4584 272.76 88.3827 272.793L88.381 272.794C88.2052 272.87 87.9954 272.961 87.7855 273.1C87.4845 273.2 87.1836 273.4 86.8826 273.6C86.5816 273.8 86.381 274.1 86.1803 274.4C85.9797 274.7 85.8793 275 85.8793 275.4C86.5816 275.4 87.0832 275.6 87.5849 276C88.0865 276.3 88.3875 276.9 88.3875 277.6ZM364.085 296.1L364.386 295.8C364.676 295.916 365.032 296.165 365.359 296.393L365.36 296.393L365.36 296.394C365.599 296.56 365.822 296.716 365.991 296.8C362.781 300.4 359.169 303.8 356.059 303.8C354.152 303.8 352.949 302.8 352.748 301.3C350.842 302.8 348.936 303.8 347.431 303.8C345.123 303.8 343.919 302.4 344.12 300.5C341.913 302.4 339.705 303.8 337.699 303.8C334.589 303.8 333.485 301.2 335.09 298.4L340.006 289.8C341.712 287 339.104 286 333.285 293.3L327.466 303.4H323.653L325.058 301C323.152 302.7 321.145 303.8 319.339 303.8C317.433 303.8 316.229 302.8 316.028 301.3C314.122 302.8 312.216 303.8 310.711 303.8C308.504 303.8 307.4 302.5 307.4 300.8C305.394 302.6 303.287 303.8 301.381 303.8C298.271 303.8 297.167 301.2 298.772 298.4L302.785 291.4C303.287 290.6 303.086 289.8 302.585 289.2L302.083 288.6L301.615 289.228L301.614 289.23C299.017 292.711 297.675 294.511 296.063 296.4C296.102 296.477 296.125 296.538 296.146 296.591L296.146 296.591C296.178 296.677 296.202 296.739 296.264 296.8C292.05 301.7 288.138 304.4 284.225 305.6L281.315 310.6C278.607 315.3 272.988 314.5 272.988 310.9C272.988 308 276.199 306 281.315 304.4L282.319 302.7C281.215 303.4 279.811 303.9 278.205 303.9C272.788 303.9 272.286 298.8 274.995 294.2L276.099 292.2C272.988 290.6 271.283 287.7 271.283 284.7C271.283 282.1 272.487 279.5 275.196 277.6L276.4 279.8C274.794 281.1 273.992 282.8 273.992 284.6C273.992 286.7 275.196 288.8 277.403 290L283.322 279.8C285.028 276.9 287.536 275.4 289.643 275.4C301.581 275.4 295.06 293.5 281.516 293.5C280.714 293.5 280.011 293.4 279.309 293.3L278.205 295.2C275.898 299.1 276.399 301.7 279.008 301.7C282.018 301.7 284.325 299.1 286.332 295.6L286.733 294.9H290.445L285.63 303.1C288.639 301.8 291.348 299.5 294.458 295.9L294.157 295.6C296.386 293.024 298.376 290.211 299.989 287.932C300.191 287.646 300.388 287.368 300.578 287.1L300.277 286.7C298.973 285 299.073 282.8 301.28 280.9L303.287 283.1C302.585 283.8 302.585 284.6 303.086 285.3L305.193 287.9C306.397 289.4 306.999 290.7 305.695 293L301.882 299.6C300.979 301.1 301.481 301.7 302.284 301.7C303.989 301.7 306.698 299.2 309.407 296L309.608 295.8L313.32 289.5C314.925 286.7 317.834 285.1 319.841 285.1C322.349 285.1 323.954 287.3 323.854 288.9H325.76L319.64 299.6C318.737 301.1 319.239 301.7 320.042 301.7C321.747 301.7 324.456 299.2 327.165 296L327.466 295.7C327.666 295.7 327.767 295.8 327.867 295.9L333.987 285.4H337.799L336.395 287.9C338.301 286 340.107 285.1 341.712 285.1C343.819 285.1 345.324 287.2 343.719 290.1L338.201 299.7C337.298 301.2 337.799 301.8 338.602 301.8C340.307 301.8 343.016 299.3 345.725 296.1L346.026 295.8C346.026 295.8 346.126 295.9 346.227 295.9L349.939 289.5C351.544 286.7 354.453 285.1 356.46 285.1C358.065 285.1 359.269 286 359.971 287.1L365.59 277.5H369.402L356.56 299.7C355.657 301.2 356.159 301.8 356.962 301.8C358.667 301.8 361.376 299.3 364.085 296.1ZM289.643 278.8C288.639 278.8 287.335 279.7 286.231 281.6L280.714 291.1H281.516C291.448 291.1 295.662 278.8 289.643 278.8ZM275.998 310.4C275.998 311.4 277.302 311.6 278.105 310.2L279.811 307.2C276.901 308.3 275.998 309.4 275.998 310.4ZM311.815 301.7C313.32 301.7 315.627 300 317.935 296.4L320.944 291.2C322.851 287.8 318.737 286.9 316.731 290.4L311.413 299.6C310.51 301.1 311.012 301.7 311.815 301.7ZM348.534 301.7C350.139 301.7 352.447 300 354.754 296.2L357.664 291.2C359.57 287.8 355.457 286.9 353.45 290.4L348.133 299.6C347.23 301.1 347.732 301.7 348.534 301.7ZM108.955 275.5C116.479 275.5 115.977 285.1 108.252 287.7C115.576 292.6 110.259 306.2 98.9219 306.2C85.5785 306.2 83.1707 291.6 91.1968 286.5L92.7017 288.4C88.9896 290.8 88.2873 296.2 90.8958 299.8C91.4011 299.213 91.765 298.625 92.1655 297.979C92.2422 297.855 92.3201 297.729 92.4007 297.6L102.634 279.9C104.34 277 106.848 275.5 108.955 275.5ZM93.3036 302C94.8085 302.8 96.5141 303.3 98.8216 303.3C108.052 303.3 111.563 290.2 102.634 288.3L101.631 288.2L95.2098 299.3C94.6079 300.3 94.0059 301.2 93.3036 302ZM106.045 280.7L102.935 286C106.848 285.9 108.955 285.1 110.459 282.3C112.366 278.7 108.854 275.9 106.045 280.7ZM143.567 304.1C141.059 304.1 139.855 302.2 140.457 300C137.748 302.3 134.638 304.1 131.428 304.3C128.217 304.3 126.211 302.3 126.311 299.7C123.602 302.3 120.191 304.3 116.88 304.3C112.366 304.3 110.259 300.5 112.667 296.5L116.68 289.7C118.285 286.9 120.693 285.3 123.803 285.3C126.913 285.3 128.819 287.9 126.813 291.4L126.311 292.3C123.402 297.2 118.787 297.7 116.379 296.7L115.977 297.4C114.272 300.4 115.676 301.9 117.984 301.9C120.693 301.9 124.204 299.4 126.913 296.2L127.214 295.9C127.264 295.95 127.314 295.975 127.365 296C127.415 296.025 127.465 296.05 127.515 296.1L131.327 289.6C132.933 286.8 135.34 285.2 138.451 285.2C141.561 285.2 143.467 287.8 141.46 291.3L140.959 292.2H137.849L138.35 291.3C140.658 287.4 136.745 286.7 134.538 290.5L130.625 297.3C128.92 300.3 130.324 301.8 132.632 301.8C135.34 301.8 138.852 299.3 141.561 296.1L141.862 295.8C142.062 295.9 142.263 296 142.464 296.2L146.276 289.6C147.881 286.8 150.791 285.2 152.797 285.2C155.305 285.2 156.911 287.4 156.81 289H159.018L152.898 299.7C151.995 301.2 152.496 301.8 153.299 301.8C155.004 301.8 157.713 299.3 160.422 296.1L160.723 295.8C160.773 295.85 160.823 295.875 160.874 295.9C160.924 295.925 160.974 295.95 161.024 296L167.044 285.6H170.856L163.432 298.5L163.401 298.55C162.894 299.357 162.046 300.708 162.93 301.1C163.633 301.4 165.84 299.9 168.749 297.3L175.471 285.5H179.283L171.157 299.7C170.254 301.2 170.756 301.8 171.558 301.8C173.264 301.8 175.973 299.3 178.682 296.1L178.782 295.9L178.682 295.8C181.502 292.492 184.323 288.569 186.123 286.066L186.126 286.062C186.501 285.54 186.832 285.08 187.109 284.7L189.918 286.2C188.444 289.138 187.985 292.376 187.575 295.272C187.315 297.107 187.074 298.804 186.607 300.2C188.112 299.2 189.818 297.7 191.222 296.1L191.523 295.8H191.624L195.336 289.5C196.941 286.7 199.349 285.1 202.459 285.1C205.569 285.1 207.475 287.7 205.469 291.2L204.967 292.1C202.058 297 197.443 297.5 195.035 296.5L194.633 297.2C192.928 300.2 194.332 301.7 196.64 301.7C199.349 301.7 202.86 299.2 205.569 296L205.87 295.7C206.372 295.9 206.974 296.5 207.275 297C204.164 300.6 199.85 304 195.536 304C192.426 304 190.52 302.2 190.42 299.7C188.012 301.8 185.303 303.5 182.494 303.9H182.394C181.992 304 181.691 304 181.29 304C177.779 304 177.076 300.9 177.076 300.9L179.484 299.7C179.484 299.7 179.986 301.1 181.29 301.1C183.683 301.1 184.138 297.982 184.611 294.744C184.851 293.095 185.096 291.416 185.604 290.1C185.178 290.647 184.714 291.267 184.217 291.933L184.216 291.933C183.075 293.461 181.754 295.229 180.287 296.9C180.287 296.95 180.312 296.975 180.337 297C180.362 297.025 180.387 297.05 180.387 297.1C177.177 300.7 173.565 304.1 170.455 304.1C168.047 304.1 166.843 302.5 167.244 300.5C165.438 302.2 163.131 304.1 161.024 304.1C159.118 304.1 158.215 302.7 158.616 300.7C156.409 302.7 154.202 304.1 152.195 304.1C150.289 304.1 149.085 303.1 148.885 301.6C146.978 303.1 145.072 304.1 143.567 304.1ZM202.459 291.2C204.766 287.3 200.854 286.6 198.646 290.4L196.239 294.6C197.643 295.1 200.151 295.2 201.957 292.1L202.459 291.2ZM149.587 290.5L144.27 299.7C143.367 301.2 143.868 301.7 144.671 301.8C146.176 301.8 148.483 300.1 150.791 296.5L153.801 291.3C155.707 287.9 151.593 287 149.587 290.5ZM123.803 291.2C126.11 287.3 122.198 286.6 119.991 290.4L117.583 294.6C118.987 295.1 121.495 295.2 123.301 292.1L123.803 291.2ZM249.01 304.1C253.324 304.1 257.638 300.7 260.749 297.1C260.448 296.6 259.846 296 259.344 295.8L259.043 296.1C256.334 299.3 252.823 301.8 250.114 301.8C247.806 301.8 246.402 300.3 248.107 297.3L248.509 296.6C250.916 297.6 255.531 297.1 258.441 292.2L258.943 291.3C260.949 287.8 259.043 285.2 255.933 285.2C252.823 285.2 250.415 286.8 248.81 289.6L245.098 295.9C245.098 295.9 244.997 295.9 244.997 295.8L244.696 296.1C241.987 299.3 239.279 301.8 237.573 301.8C236.77 301.8 236.269 301.2 237.172 299.7L242.69 290.1C244.295 287.2 242.79 285.1 240.683 285.1C239.078 285.1 237.272 286 235.366 288L241.486 277.5H237.573L226.838 296C226.788 295.95 226.713 295.9 226.637 295.85C226.562 295.8 226.487 295.75 226.437 295.7L226.136 296C223.427 299.2 220.718 301.7 219.013 301.7C218.21 301.7 217.708 301.1 218.611 299.6L226.738 285.4H229.848L230.952 283.6H227.841L231.453 277.4H227.641L224.029 283.6H220.618L219.514 285.4H223.026L215.401 298.6C213.796 301.4 214.899 304 218.009 304C219.916 304 221.922 302.8 224.029 301L222.524 303.6H226.337L232.155 293.6C237.974 286.3 240.583 287.2 238.978 290L234.062 298.6C232.456 301.4 233.56 304 236.67 304C238.978 304 241.586 302.2 243.994 299.8C243.994 302.3 245.9 304.1 249.01 304.1ZM252.12 290.4C254.328 286.6 258.24 287.3 255.933 291.2L255.431 292.1C253.625 295.2 251.117 295.1 249.713 294.6L252.12 290.4ZM237.272 331.8L236.971 332.1C234.262 335.3 231.554 337.8 229.848 337.8C229.045 337.8 228.544 337.2 229.447 335.7L234.965 326.1C236.57 323.2 235.065 321.1 232.958 321.1C231.353 321.1 229.547 322 227.641 323.9L229.045 321.4H225.233L219.113 332C219.013 331.95 218.938 331.9 218.862 331.85C218.787 331.8 218.712 331.75 218.611 331.7L218.31 332C216.605 333.9 214.498 334.8 212.592 334.8L216.204 328.6C218.511 324.6 216.404 320.9 212.793 320.9C209.883 320.9 207.576 322.1 205.368 325.9L203.462 329.1L201.857 331.9C201.807 331.85 201.757 331.825 201.706 331.8L201.679 331.786C201.666 331.78 201.654 331.773 201.641 331.765C201.613 331.748 201.584 331.728 201.556 331.7L201.255 332C198.145 335.6 195.436 337.9 192.426 339.2L202.86 321.4H199.048L192.326 333.1C189.416 335.8 187.109 337.3 186.407 337C185.522 336.608 186.37 335.257 186.877 334.45L186.908 334.4L194.332 321.5H190.52L184.4 332C184.35 331.95 184.3 331.925 184.25 331.9C184.199 331.875 184.149 331.85 184.099 331.8L183.798 332.1C181.089 335.3 178.381 337.8 176.675 337.8C175.872 337.8 175.371 337.2 176.274 335.7L181.792 326.1C183.397 323.2 181.892 321.1 179.785 321.1C178.18 321.1 176.374 322 174.468 323.9L175.872 321.4H172.06L165.94 331.9C165.84 331.8 165.739 331.7 165.539 331.7L165.238 332C162.529 335.2 159.82 337.7 158.115 337.7C157.312 337.7 156.81 337.1 157.713 335.6L163.833 324.9H161.626C161.726 323.3 160.121 321.1 157.613 321.1C155.606 321.1 152.697 322.7 151.092 325.5L147.179 332.3C146.878 332.1 146.577 331.9 146.376 331.8L146.075 332.1C143.367 335.3 139.956 337.8 136.243 337.8C133.635 337.8 132.03 335.2 134.337 331.3L135.441 329.4C136.143 329.5 136.845 329.6 137.648 329.6C141.661 329.6 146.276 327.5 149.286 322.3C150.389 320.4 150.791 318.7 150.791 317.2C150.791 313.8 148.584 311.5 145.774 311.5C143.668 311.5 141.159 313 139.454 315.9L133.535 326.1C131.327 324.9 130.124 322.8 130.124 320.7C130.124 318.9 130.926 317.2 132.531 315.9L131.327 313.7C128.619 315.6 127.415 318.2 127.415 320.8C127.415 323.8 129.12 326.7 132.23 328.3L131.127 330.3C128.418 334.9 130.023 340 135.441 340C139.655 340 142.865 338.1 145.473 335.6C144.671 338 145.875 340 148.584 340C150.088 340 151.995 339 153.901 337.5C154.102 339 155.305 340 157.212 340C159.018 340 161.024 338.9 162.93 337.2L161.526 339.6H165.338L171.157 329.5C176.976 322.2 179.584 323.2 177.879 326L172.963 334.6C171.358 337.4 172.461 340 175.571 340C177.578 340 179.885 338.6 182.093 336.6C181.591 338.7 182.594 340 184.5 340C186.306 340 188.413 338.5 190.119 336.9L188.012 340.5C182.895 342 179.584 344.1 179.584 347C179.584 350.6 185.203 351.4 187.912 346.7L190.821 341.7C194.031 340.7 197.142 338.7 200.452 335.5C199.951 340.8 206.974 342 211.288 336.6H212.09C213.495 336.6 215.401 336.1 217.107 335.1L214.598 339.5H218.411L224.23 329.4C230.049 322.1 232.657 323.1 230.952 325.9L226.036 334.5C224.43 337.3 225.534 339.9 228.644 339.9C231.754 339.9 235.366 336.5 238.576 332.9C238.476 332.6 237.774 332 237.272 331.8ZM142.564 317.6C143.668 315.7 144.972 314.8 145.975 314.8C147.38 314.8 148.082 315.7 148.082 317.1C148.082 320.6 143.768 327 137.849 327H137.046L142.564 317.6ZM156.008 332.4C153.7 336 151.393 337.7 149.888 337.7C149.085 337.7 148.584 337.1 149.487 335.6L154.804 326.4C156.81 322.9 160.924 323.8 159.018 327.2L156.008 332.4ZM184.902 346.2C184.099 347.6 182.795 347.4 182.795 346.4C182.795 345.4 183.698 344.3 186.607 343.2L184.902 346.2ZM210.585 332H210.385C209.181 332 208.177 333 208.177 334.3C208.177 334.8 208.278 335.2 208.579 335.6V335.7C206.773 338.8 202.459 338.2 204.666 334.2L207.576 329.2L209.381 326.1C212.09 321.6 215.702 323.4 213.394 327.3L210.585 332ZM324.055 331.8C324.556 331.9 325.258 332.5 325.459 333.1C322.65 336.4 318.737 339.5 314.925 340.2H314.824C314.423 340.3 314.122 340.3 313.721 340.3H313.721C310.209 340.3 309.507 337.2 309.507 337.2L311.915 336C311.915 336 312.417 337.4 313.721 337.4C316.114 337.4 316.569 334.283 317.042 331.044C317.282 329.396 317.527 327.716 318.035 326.4C317.624 326.928 317.178 327.523 316.697 328.165C315.538 329.715 314.178 331.533 312.617 333.3C309.407 336.9 305.795 340.3 302.685 340.3C299.575 340.3 298.973 338.6 298.973 335.4V332.4L294.659 339.9H290.846L292.953 336.2C290.245 338.5 287.235 340.2 284.125 340.2C281.014 340.2 279.008 338.3 279.008 335.8C276.5 338.3 273.891 340.2 271.483 340.2C269.076 340.2 267.872 338.6 268.273 336.6C266.467 338.3 264.16 340.2 262.053 340.2C260.448 340.2 259.545 339.2 259.545 337.7C257.739 339 255.833 339.8 253.926 340.1H253.826C253.425 340.2 253.124 340.2 252.722 340.2C249.603 340.2 248.701 337.754 248.538 337.208C247.611 338.356 246.819 339.315 246.302 339.9C246.207 339.825 246.109 339.749 246.009 339.673C245.583 339.346 245.141 339.006 244.897 338.6C248.408 334.6 257.137 323 258.742 320.8L261.551 322.3C260.077 325.239 259.618 328.476 259.208 331.372C258.948 333.207 258.707 334.904 258.24 336.3C258.544 336.041 258.886 335.762 259.241 335.473L259.249 335.467L259.251 335.465L259.252 335.464C259.713 335.088 260.197 334.694 260.648 334.3L268.072 321.6H271.885L264.461 334.5L264.429 334.55C263.923 335.358 263.075 336.709 263.959 337.1C264.661 337.4 266.868 335.9 269.778 333.3L276.5 321.5H280.312L272.186 335.7C271.283 337.2 271.784 337.8 272.587 337.8C274.293 337.8 277.001 335.3 279.71 332.1L280.011 331.8C280.011 331.8 280.112 331.9 280.212 331.9L283.924 325.5C285.529 322.7 287.937 321.1 291.047 321.1C294.157 321.1 296.063 323.7 294.057 327.2L293.555 328.1H290.445L290.947 327.2C293.254 323.3 289.342 322.6 287.134 326.4L283.222 333.2C281.516 336.2 282.921 337.7 285.228 337.7C287.937 337.7 291.448 335.2 294.157 332L294.458 331.7C294.659 331.8 294.96 332 295.16 332.2L305.996 313.4H309.808L304.391 322.8C308.303 319.2 314.022 321.2 310.51 327.3L309.507 329.1C307.701 332.2 304.892 333.9 302.183 333.6V335.2C302.183 337 302.986 337.8 303.789 337.8C305.494 337.8 308.203 335.3 310.912 332.1L311.213 331.8C314.034 328.493 316.854 324.569 318.654 322.067L318.654 322.066C319.031 321.543 319.362 321.081 319.64 320.7L322.449 322.2C320.975 325.139 320.516 328.376 320.106 331.272C319.846 333.107 319.605 334.804 319.138 336.2C320.643 335.2 322.349 333.7 323.754 332.1L324.055 331.8ZM248.702 337.004L250.917 335.9C250.917 335.9 251.418 337.3 252.722 337.3C255.116 337.3 255.571 334.183 256.043 330.944C256.284 329.296 256.529 327.616 257.036 326.3C256.056 327.654 251.727 333.249 248.702 337.004ZM301.28 328.2L300.177 330.1C301.08 332.6 304.391 331.2 305.494 329.2L307.3 326.1C308.705 323.8 305.695 322.1 301.28 328.2ZM325.359 335.7C324.155 335.7 323.152 336.7 323.152 337.9C323.152 339.1 324.055 340.1 325.359 340.1C326.563 340.1 327.566 339.2 327.566 337.9C327.566 336.7 326.563 335.7 325.359 335.7ZM329.372 334.2H325.559L337.498 313.5H341.311L329.372 334.2ZM354.554 335.6C354.453 335.9 354.353 336.2 354.353 336.5C354.353 337.2 354.654 337.8 355.156 338.1C355.657 338.5 356.159 338.7 356.861 338.7C356.861 339.1 356.761 339.4 356.56 339.7C356.359 340 356.159 340.3 355.858 340.5C355.557 340.7 355.256 340.9 354.955 341C354.745 341.139 354.535 341.23 354.359 341.306C354.283 341.339 354.213 341.37 354.152 341.4L355.557 343.4C355.619 343.338 355.681 343.315 355.767 343.282C355.82 343.262 355.882 343.238 355.958 343.2C356.033 343.163 356.108 343.112 356.187 343.057C356.322 342.965 356.472 342.863 356.66 342.8C356.961 342.7 357.262 342.5 357.563 342.3C357.864 342.1 358.165 341.8 358.366 341.6C358.968 341.1 359.369 340.4 359.67 339.7C359.971 338.9 360.172 338.2 360.172 337.3C360.172 336.8 360.072 336.4 359.971 336L359.971 336C359.929 335.917 359.892 335.837 359.856 335.762C359.72 335.475 359.607 335.237 359.369 335C359.068 334.7 358.667 334.5 358.266 334.3C357.864 334.1 357.463 334 356.961 334C356.56 334 356.159 334.1 355.858 334.2L355.857 334.201C355.556 334.4 355.256 334.6 355.055 334.8C354.855 335 354.654 335.3 354.554 335.6ZM346.728 335.6C346.628 335.9 346.527 336.2 346.527 336.5C346.527 337.2 346.728 337.8 347.33 338.1C347.832 338.5 348.333 338.7 349.036 338.7C349.036 339.1 348.935 339.4 348.735 339.7C348.534 340 348.333 340.3 348.032 340.5C347.731 340.7 347.43 340.9 347.129 341C346.828 341.2 346.628 341.3 346.327 341.4L347.731 343.4C347.793 343.338 347.855 343.315 347.941 343.282C347.994 343.262 348.056 343.238 348.133 343.2C348.207 343.163 348.282 343.112 348.362 343.057C348.497 342.965 348.646 342.863 348.835 342.8C349.136 342.7 349.437 342.5 349.738 342.3C350.039 342.1 350.34 341.8 350.541 341.6C351.143 341.1 351.544 340.4 351.845 339.7C352.146 338.9 352.346 338.2 352.346 337.3C352.346 336.8 352.246 336.4 352.146 336C351.945 335.6 351.744 335.3 351.544 335C351.243 334.7 350.842 334.5 350.44 334.3C350.039 334.1 349.638 334 349.136 334C348.735 334 348.333 334.1 348.032 334.2L348.032 334.201C347.731 334.4 347.43 334.6 347.23 334.8C347.029 335 346.828 335.3 346.728 335.6Z" fill="white" /> </symbol>
	<symbol viewBox="0 0 229 39" id="sedona-icon">
		<path d="M27.3156 26.6366C27.3156 26.8879 27.2655 27.0889 27.2655 27.2899C27.0149 29.3003 26.3633 31.2603 25.3108 33.0696C24.2583 34.8789 22.8048 36.2861 21.0506 37.2912C20.399 37.5928 19.6973 37.8441 18.9956 38.0954C18.2939 38.2964 17.5923 38.4974 16.8906 38.6482C16.2891 38.7487 15.7378 38.8492 15.1364 38.8995C14.5349 38.9497 13.9836 39 13.4323 39C13.332 39 13.2318 39 13.1315 39C13.0313 39 12.9311 39 12.8308 39C10.5253 38.8995 8.21974 38.3969 5.96432 37.442C3.75903 36.4369 1.75421 35.1804 0 33.5722L4.6612 26.0838C4.71132 26.134 4.71132 26.134 4.76144 26.1843C4.76144 26.1843 4.81156 26.2345 4.86168 26.2848C5.9142 27.4407 7.11709 28.5464 8.42022 29.5013C9.72335 30.4562 11.2771 31.009 12.9812 31.1095C13.0313 31.1095 13.0814 31.1095 13.1315 31.1598C13.1817 31.1598 13.2318 31.2101 13.2819 31.2101C13.332 31.2101 13.3821 31.2101 13.4323 31.2603C13.4824 31.2603 13.5325 31.3106 13.5826 31.3106C13.733 31.3106 13.8833 31.3106 14.0838 31.2603C14.2342 31.2603 14.4347 31.2101 14.585 31.1598C15.1865 31.0593 15.7879 30.808 16.3392 30.4562C16.8906 30.1044 17.3417 29.7023 17.6424 29.1495C17.6925 29.049 17.7426 28.9987 17.7426 28.8982C17.7927 28.7977 17.8429 28.7474 17.8429 28.6469C17.9431 28.3956 17.9932 28.1443 17.9932 27.893C18.0433 27.6418 18.0433 27.4407 18.0433 27.2397C18.0433 26.1843 17.5923 25.2796 16.6901 24.576C15.7879 23.8724 14.7855 23.3196 13.733 22.9175C13.2819 22.7668 12.8809 22.616 12.5301 22.5155C12.1291 22.4149 11.7783 22.3144 11.4274 22.2642C11.3773 22.2642 11.3272 22.2642 11.3272 22.2139C11.2771 22.2139 11.227 22.1637 11.227 22.1637C9.32239 21.7113 7.51806 20.9575 5.86408 19.9021C4.21011 18.8466 3.05734 17.3892 2.40578 15.4291C2.30554 15.0271 2.2053 14.625 2.10506 14.2229C2.00482 13.7706 1.95469 13.3686 1.90457 12.866C1.85445 12.7152 1.85445 12.5644 1.85445 12.4137C1.85445 12.2629 1.85445 12.1121 1.85445 11.9613C1.85445 11.6598 1.85445 11.3582 1.90457 11.0064C1.90457 10.7049 1.95469 10.4033 2.05494 10.0515C2.15518 9.29768 2.35566 8.49356 2.65638 7.73969C2.90698 6.98582 3.25782 6.28222 3.70891 5.62887C4.96192 3.5683 6.56577 2.11082 8.52046 1.20619C10.3749 0.45232 12.4299 0 14.5349 0C15.0361 0 15.5373 0.0502577 16.0886 0.100515C16.5898 0.150773 17.1412 0.251289 17.6925 0.301546C19.0959 0.552835 20.4992 0.904639 21.8525 1.45747C23.2057 2.01031 24.5089 2.66366 25.6616 3.36727L22.4539 10.5541C21.4014 9.80026 20.2988 9.09665 19.146 8.49356C17.9932 7.89046 16.7402 7.63917 15.387 7.63917C15.2867 7.63917 15.2366 7.63917 15.1364 7.63917C15.0361 7.63917 14.986 7.63917 14.8858 7.63917C13.9836 7.73969 13.1817 8.14175 12.3797 8.84536C11.6279 9.54897 11.227 10.2526 11.227 11.0567C11.227 11.1572 11.227 11.308 11.2771 11.4085C11.2771 11.509 11.3272 11.6598 11.4274 11.7603C11.5277 12.0116 11.6279 12.2629 11.8284 12.5142C12.0289 12.7655 12.2294 12.9665 12.48 13.1675C12.9311 13.5193 13.5325 13.8209 14.3344 14.1224C15.1364 14.424 15.9884 14.6753 16.8906 14.9768C17.6424 15.1778 18.3441 15.3789 19.0457 15.5296C19.7474 15.6804 20.3489 15.8814 20.8 16.0322C22.9551 16.7861 24.6091 18.0928 25.7118 19.9021C26.8144 21.7113 27.3657 23.6211 27.4158 25.6314C27.4158 25.732 27.4158 25.7822 27.4158 25.7822C27.4158 25.8325 27.4158 25.8827 27.4158 25.8827C27.3657 26.134 27.3657 26.3853 27.3156 26.6366ZM57.3878 29.7526V38.0954H34.6332V0.904639H57.3878V9.04639H44.6071V15.5296H56.636V23.4704H44.6071V29.7526H57.3878ZM95.78 28.2951C94.5772 30.8582 92.8731 32.9691 90.6176 34.5773C88.8133 35.8338 86.8085 36.6881 84.7034 37.1405C82.5483 37.5928 80.3931 37.8943 78.2379 37.9948C77.6365 38.0451 76.9849 38.0451 76.3835 38.0451C75.782 38.0451 75.1806 38.0451 74.6292 38.0451H64.4548V0.854381H75.2808C75.8822 0.854381 76.4336 0.854381 77.035 0.854381C77.6365 0.854381 78.2379 0.854381 78.7892 0.904639C80.8943 1.00515 82.9492 1.3067 85.0042 1.75902C87.0591 2.21134 88.9136 3.06572 90.6176 4.32217C92.7728 5.8299 94.4769 7.84021 95.6798 10.3531C96.8827 12.866 97.5844 15.4291 97.7347 18.0425C97.7849 18.2938 97.7849 18.4948 97.7849 18.7461C97.7849 18.9974 97.7849 19.1985 97.7849 19.4497C97.7849 19.5503 97.7849 19.701 97.7849 19.8518C97.7849 20.0026 97.7849 20.1031 97.7849 20.2539C97.6345 23.0683 96.9829 25.732 95.78 28.2951ZM87.5603 19.0979C87.5603 18.9472 87.5603 18.7964 87.5102 18.6456C87.4099 17.1881 87.0591 15.7307 86.4576 14.3737C85.8562 13.0168 85.0042 11.9111 83.9015 11.0567C83.0996 10.4033 82.1974 9.95103 81.195 9.69974C80.1926 9.44845 79.1902 9.34794 78.1377 9.29768C77.9372 9.29768 77.7367 9.29768 77.5362 9.29768C77.3357 9.29768 77.1353 9.29768 76.9348 9.29768H74.3786V29.8028C74.4789 29.8028 74.6292 29.8028 74.7796 29.8531C74.93 29.8531 75.0302 29.9033 75.1806 29.9033C75.3309 29.9033 75.4813 29.9033 75.5815 29.9536C75.6818 29.9536 75.8321 30.0039 75.9324 30.0039C76.3333 30.0039 76.7343 30.0039 77.1353 29.9536C77.5863 29.9536 77.9873 29.9034 78.3382 29.8531C79.3406 29.7526 80.343 29.6018 81.2952 29.3505C82.2475 29.0992 83.1497 28.6469 83.9015 28.1443C85.1545 27.2397 86.0567 26.0335 86.6581 24.4755C87.2596 22.9175 87.5603 21.3093 87.5603 19.6508C87.5603 19.3995 87.5603 19.2487 87.5603 19.0979ZM142.492 21.058C142.492 21.4601 142.442 21.8621 142.342 22.2642C142.242 23.0683 142.141 23.8724 141.891 24.6765C141.69 25.4807 141.39 26.2848 141.089 27.0387C139.435 30.808 136.929 33.7229 133.471 35.8338C130.012 37.8943 126.404 38.9497 122.594 38.9497C122.344 38.9497 122.043 38.9497 121.793 38.8995C121.542 38.8995 121.291 38.8492 120.991 38.8492C119.687 38.7487 118.384 38.4974 117.081 38.1456C115.778 37.7938 114.525 37.2912 113.322 36.6881C110.064 34.9794 107.508 32.5168 105.654 29.3505C103.799 26.1843 102.847 22.8673 102.847 19.4497C102.847 18.9472 102.847 18.4446 102.897 17.942C102.947 17.4394 102.997 16.8866 103.148 16.384C103.348 15.3789 103.599 14.3737 103.95 13.3183C104.3 12.3131 104.701 11.308 105.253 10.3531C107.057 7.03608 109.513 4.5232 112.721 2.76418C115.878 1.00515 119.236 0.150773 122.695 0.150773C123.146 0.150773 123.647 0.150773 124.098 0.201031C124.599 0.251289 125.05 0.301546 125.501 0.301546C126.955 0.502577 128.358 0.854381 129.762 1.35696C131.165 1.85954 132.518 2.51289 133.821 3.31701C136.578 5.12629 138.733 7.4884 140.237 10.4536C141.74 13.4188 142.492 16.5348 142.492 19.7513C142.492 20.2539 142.492 20.6559 142.492 21.058ZM132.368 18.9472C132.368 18.6959 132.318 18.4948 132.318 18.2436C132.117 16.5851 131.616 14.9768 130.814 13.4188C130.012 11.8608 128.859 10.6546 127.456 9.80026C127.055 9.59923 126.704 9.44845 126.303 9.29768C125.902 9.14691 125.552 8.99613 125.151 8.89562C124.75 8.7951 124.399 8.74484 123.998 8.69459C123.597 8.64433 123.246 8.59407 122.845 8.59407C120.89 8.59407 119.036 9.19716 117.382 10.4536C115.728 11.7101 114.525 13.3686 113.873 15.4291C113.823 15.5296 113.823 15.5799 113.773 15.6804C113.773 15.7809 113.723 15.8312 113.723 15.9317C113.623 16.2835 113.523 16.6353 113.422 16.9871C113.322 17.3389 113.272 17.741 113.172 18.143C113.122 18.3943 113.122 18.6959 113.072 18.9472C113.072 19.1985 113.021 19.4497 113.021 19.7513C113.021 19.9021 113.021 20.0528 113.021 20.2036C113.021 20.3544 113.021 20.5052 113.072 20.6559C113.172 22.7165 113.823 24.6765 114.976 26.5361C116.129 28.3956 117.683 29.6018 119.738 30.2049C119.988 30.3054 120.189 30.3557 120.439 30.4059C120.69 30.4562 120.94 30.5064 121.191 30.5567C121.442 30.607 121.642 30.607 121.893 30.6572C122.143 30.6572 122.344 30.7075 122.594 30.7075C124.649 30.7075 126.504 30.1044 128.158 28.8479C129.812 27.6418 131.015 25.9832 131.716 23.9227C131.817 23.5206 131.917 23.1186 132.017 22.7165C132.117 22.2642 132.167 21.8621 132.218 21.4098C132.268 21.1585 132.268 20.857 132.318 20.6057C132.318 20.3544 132.368 20.1031 132.368 19.8518C132.368 19.4497 132.368 19.1985 132.368 18.9472ZM176.223 38.0954L162.139 18.8969C161.738 18.4446 161.388 17.8918 161.037 17.2384C160.686 16.5851 160.335 15.9317 160.034 15.2281C159.784 14.7255 159.583 14.2229 159.383 13.7204C159.182 13.2178 158.982 12.7655 158.781 12.3634C158.982 13.5696 159.132 14.7758 159.232 16.0322C159.333 17.2887 159.383 18.5451 159.383 19.7513V38.0954H149.609V0.904639H159.383L173.366 20.0026C173.717 20.5554 174.068 21.1082 174.369 21.7113C174.72 22.3144 175.02 22.9175 175.321 23.5709C175.572 24.0735 175.772 24.576 176.023 25.0786C176.273 25.5812 176.474 26.0838 176.724 26.5361C176.674 26.0838 176.624 25.6817 176.574 25.3299C176.524 24.9278 176.474 24.5258 176.424 24.1237C176.323 23.3698 176.273 22.5657 176.273 21.7113C176.223 20.9072 176.223 20.0528 176.223 19.1985V0.954897H185.947V38.1456H176.223V38.0954ZM218.876 38.0954L217.021 31.4111H202.687L200.782 38.1456H190.758L203.489 0.954897H216.119L229 38.1456H218.876V38.0954ZM211.107 11.9111C210.907 11.308 210.706 10.7049 210.556 10.0515C210.405 9.3982 210.255 8.7951 210.105 8.14175C210.004 7.89046 209.954 7.68943 209.954 7.4884C209.904 7.28737 209.854 7.08634 209.854 6.88531C209.804 7.08634 209.754 7.28737 209.704 7.4884C209.654 7.68943 209.603 7.94072 209.553 8.14175C209.503 8.24227 209.503 8.29253 209.503 8.34278C209.503 8.39304 209.503 8.49356 209.453 8.54381C209.353 9.14691 209.202 9.69974 209.052 10.2526C208.902 10.8054 208.751 11.3582 208.601 11.9111L204.842 24.2242H214.916L211.107 11.9111Z" fill="white" /> </symbol>
	<symbol viewBox="0 0 40 38" id="house-icon">
		<path d="M15.9015 33.8041H24.2549V21.646H15.9015V33.8041ZM22.7408 32.3289H17.4155V23.1212H22.6886V32.3289H22.7408Z" fill="#81B3D2" />
		<path d="M38.4036 20.6278L39.5 19.5595L34.3313 14.5233V0.7882H27.1265V7.50314L19.9739 0.584717L0.5 19.6104L1.59639 20.6787L5.66867 16.7108V35.9399H3.63253V37.4152H36.994V35.9399H34.3313V16.6599L38.4036 20.6278ZM28.6406 2.31432H32.7651V13.0481L28.6406 9.02927V2.31432ZM32.8173 35.889H7.23494V15.1846L19.9739 2.72129L32.7651 15.1846V35.889H32.8173Z" fill="#81B3D2" />
		<path d="M16.0582 14.4216C16.0582 16.609 17.8855 18.3895 20.0783 18.3895C22.3233 18.3895 24.1506 16.609 24.1506 14.4216C24.1506 12.2341 22.3233 10.5045 20.0783 10.5045C17.8333 10.5045 16.0582 12.2341 16.0582 14.4216ZM20.0783 11.878C21.4879 11.878 22.6888 12.9972 22.6888 14.4216C22.6888 15.7951 21.5402 16.9651 20.0783 16.9651C18.6687 16.9651 17.4679 15.846 17.4679 14.4216C17.4679 13.0481 18.6687 11.878 20.0783 11.878Z" fill="#81B3D2" />
		<path d="M10.8895 21.646H9.32324V23.63H10.8895V21.646Z" fill="#81B3D2" />
		<path d="M13.9698 21.646H12.4036V23.63H13.9698V21.646Z" fill="#81B3D2" />
		<path d="M10.8895 24.6975H9.32324V26.6815H10.8895V24.6975Z" fill="#81B3D2" />
		<path d="M13.9698 24.6975H12.4036V26.6815H13.9698V24.6975Z" fill="#81B3D2" />
		<path d="M27.5443 21.646H25.978V23.63H27.5443V21.646Z" fill="#81B3D2" />
		<path d="M30.6769 21.646H29.1106V23.63H30.6769V21.646Z" fill="#81B3D2" />
		<path d="M27.5443 24.6975H25.978V26.6815H27.5443V24.6975Z" fill="#81B3D2" />
		<path d="M30.6769 24.6975H29.1106V26.6815H30.6769V24.6975Z" fill="#81B3D2" /> </symbol>
	<symbol viewBox="0 0 40 38" id="gifts-icon">
		<path d="M30.5778 11.2058H30.527H18.1841C25.0921 7.76156 25.6508 5.58358 25.3968 4.36796C24.8381 2.39259 22.5524 0.873068 20.419 1.68348C17.6254 2.74714 16.8635 6.9005 16.1016 9.88889C15.1365 6.84985 14.2222 3.0004 12.0381 1.02502C11.4286 0.467863 10.5143 -0.0892942 9.14286 0.0120071C7.11111 0.21461 4.21587 2.69649 5.43492 5.48228C6.55238 8.16676 10.2603 9.88888 12.7492 11.2565H1.42222C0.609524 11.2565 0 11.9149 0 12.6747V18.3475C0 19.158 0.660317 19.7658 1.42222 19.7658H1.5746V38H30.527V19.7658H30.5778C31.3905 19.7658 32 19.1073 32 18.3475V12.6747C32 11.8643 31.3397 11.2058 30.5778 11.2058ZM21.2317 2.94975C22.2984 2.79779 23.7206 3.6082 23.873 4.57057C24.0762 5.93813 22.1968 7.2044 21.3333 7.76156C20.0635 8.62262 18.8444 9.07847 17.6762 9.78758C18.0825 7.91351 18.946 3.25365 21.2317 2.94975ZM9.75238 7.91351C8.63492 7.15375 6.50159 5.68488 6.55238 4.01341C6.60317 2.18999 9.44762 0.721116 10.9714 2.08868C12.9016 3.76016 13.8159 7.66026 14.527 10.3954C12.9016 9.58498 11.3778 8.97717 9.75238 7.91351ZM12.7492 36.4805H3.04762V19.7658H12.7492V36.4805ZM12.7492 18.2462H1.52381V12.7253H12.7492V18.2462ZM17.8286 36.4805H14.2222V12.7253H17.8286V36.4805ZM29.0032 36.4805H19.3524V19.7658H29.054V36.4805H29.0032ZM30.4762 18.2462H19.3524V12.7253H30.4762V18.2462Z" fill="#81B3D2" /> </symbol>
	<symbol viewBox="0 0 40 36" id="food-icon">
		<path d="M37.7428 23.8505H2.25722C0.997375 23.8505 0 24.8635 0 26.0285V27.8014C0 28.9664 0.997375 29.9288 2.25722 29.9288H2.78215V30.4354C2.78215 33.2213 5.14436 35.45 7.979 35.45H32.021C34.9081 35.45 37.2178 33.1706 37.2178 30.4354V29.9288H37.7428C38.9501 29.9288 40 28.9664 40 27.7508V25.9779C40 24.8635 39.0026 23.8505 37.7428 23.8505ZM35.6955 30.4354C35.6955 32.3602 34.0682 33.9304 32.0735 33.9304H7.92651C5.93176 33.9304 4.30446 32.3602 4.30446 30.4354V29.9288H35.6955V30.4354ZM38.4252 27.7508C38.4252 28.1053 38.1102 28.4092 37.7428 28.4092H2.25722C1.88976 28.4092 1.5748 28.1053 1.5748 27.7508V25.9779C1.5748 25.674 1.88976 25.3701 2.25722 25.3701H37.7953C38.1627 25.3701 38.4777 25.674 38.4777 26.0285V27.7508H38.4252Z" fill="#81B3D2" />
		<path d="M8.50395 19.7473L11.3386 21.7735L14.2257 19.7473L17.1129 21.7735L20 19.7473L22.8347 21.7735L25.7218 19.7473L28.6089 21.7735L31.4961 19.7473L34.3832 21.7735L37.6903 19.3928L36.7979 18.1771L34.3832 19.8486L31.4961 17.8225L28.6089 19.8486L25.7218 17.8225L22.8347 19.8486L20 17.8225L17.1129 19.8486L14.2257 17.8225L11.3386 19.8486L8.50395 17.8225L5.61682 19.8486L3.20212 18.1771L2.25723 19.3928L5.61682 21.7735L8.50395 19.7473Z" fill="#81B3D2" />
		<path d="M37.2179 16.3032C37.2179 15.9993 37.2704 14.9862 37.2179 14.7836C36.8504 6.88169 29.2913 0.550049 20 0.550049C10.7087 0.550049 3.09712 6.88169 2.72967 14.7836C2.72967 14.9862 2.72967 15.9993 2.72967 16.3032H37.2179ZM20 2.06964C28.399 2.06964 35.3281 7.74279 35.6431 14.7836H4.30447C4.67193 7.74279 11.6011 2.06964 20 2.06964Z" fill="#81B3D2" />
		<path d="M20 9.16113C20.5798 9.16113 21.0499 8.70757 21.0499 8.14807C21.0499 7.58857 20.5798 7.13501 20 7.13501C19.4202 7.13501 18.9501 7.58857 18.9501 8.14807C18.9501 8.70757 19.4202 9.16113 20 9.16113Z" fill="#81B3D2" />
		<path d="M15.8005 6.67871C16.3803 6.67871 16.8504 6.22515 16.8504 5.66565C16.8504 5.10615 16.3803 4.65259 15.8005 4.65259C15.2207 4.65259 14.7506 5.10615 14.7506 5.66565C14.7506 6.22515 15.2207 6.67871 15.8005 6.67871Z" fill="#81B3D2" />
		<path d="M24.1995 6.67871C24.7793 6.67871 25.2493 6.22515 25.2493 5.66565C25.2493 5.10615 24.7793 4.65259 24.1995 4.65259C23.6196 4.65259 23.1496 5.10615 23.1496 5.66565C23.1496 6.22515 23.6196 6.67871 24.1995 6.67871Z" fill="#81B3D2" /> </symbol>
	<symbol viewBox="0 0 48 48" id="vk-icon">
		<path fill="#81B3D2" d="M0 0h48v48H0z" />
		<g clip-path="url(#a)">
			<path fill="#fff" fill-rule="evenodd" d="M35.5 18c.1-.6 0-1-.8-1H32c-.6 0-1 .3-1.1.7 0 0-1.3 3.2-3.2 5.3-.7.6-1 .8-1.3.8-.1 0-.4-.2-.4-.7v-5.2c0-.6-.2-.9-.7-.9h-4.1c-.5 0-.7.3-.7.6 0 .6 1 .8 1 2.5V24c0 .8-.1 1-.5 1-.9 0-3-3.2-4.3-6.9-.3-.7-.5-1-1.2-1H13c-.8 0-.9.3-.9.7 0 .7.9 4.1 4.1 8.6 2.2 3 5.3 4.7 8 4.7 1.7 0 2-.4 2-1v-2.3c0-.8 0-.9.6-.9.4 0 1 .2 2.6 1.7 1.8 1.7 2.1 2.5 3.1 2.5H35c.8 0 1.2-.4 1-1.1-.3-.7-1.1-1.8-2.3-3L32 25c-.4-.5-.3-.7 0-1.1 0 0 3.2-4.4 3.5-6Z" clip-rule="evenodd" /> </g>
		<defs>
			<clipPath id="a">
				<path fill="#fff" d="M12 12h24v24H12z" /> </clipPath>
		</defs>
	</symbol>
	<symbol viewBox="0 0 48 48" id="tg-icon">
		<rect width="48" height="48" fill="#81B3D2" />
		<path d="M34.4393 16.6223L31.2705 31.566C31.0313 32.6205 30.408 32.883 29.5223 32.3865L24.6938 28.8285L22.3643 31.0695C22.1063 31.3275 21.891 31.5428 21.3938 31.5428L21.741 26.6258L30.6893 18.54C31.0785 18.1935 30.6045 18.0008 30.0848 18.348L19.0223 25.314L14.2598 23.823C13.224 23.4998 13.2053 22.7873 14.4758 22.29L33.1035 15.1133C33.966 14.79 34.7205 15.3053 34.4393 16.623V16.6223Z" fill="white" /> </symbol>
	<symbol viewBox="0 0 48 48" id="youtube-icon">
		<path fill="#81B3D2" d="M0 0h48v48H0z" />
		<path fill="#fff" d="M31.2 17H16.8a2.9 2.9 0 0 0-2.8 2.8v8.3c0 1.6 1.3 2.9 2.8 2.9h14.4c1.6 0 2.8-1.3 2.8-2.8v-8.4c0-1.5-1.2-2.8-2.8-2.8ZM21 27.4v-6.8L28 24 21 27.4Z" /> </symbol>
	<symbol viewBox="0 0 60 60" id="html-academy-icon">
		<path fill="#2E368F" d="M30.2 5h-.2l-19.7 2.1v36.2l19.7 11.7 19.7-11.7v-36.2l-19.5-2.1zm17 36.8l-17.2 10.2-17.2-10.2v-14.8l17.1 10.2v1.8l-11.7-7v1.8l11.8 7.1v1.9l-11.8-7v1.8l11.8 7 11.9-7.1v-7.6l5.3-3.2v15.1zm-.1-17l-4.7 2.8-2.2 1.3-10.3-6.1v1.8l8.8 5.3h-.1l-.2.1-1.3.7-7.3-4.3v1.8l5.8 3.4-1.4.9-4.3-2.6v1.8l2.9 1.7-2.9 1.7-17-10.1 17-10.2 17.2 10zm.1-1.8l-17.3-10.2-17.1 10.2v-13.6l17.2-1.8 17.2 1.8v13.6z" /> </symbol>
	<symbol viewBox="0 0 229 39" id="sedona-icon">
		<path d="M27.3156 26.6366C27.3156 26.8879 27.2655 27.0889 27.2655 27.2899C27.0149 29.3003 26.3633 31.2603 25.3108 33.0696C24.2583 34.8789 22.8048 36.2861 21.0506 37.2912C20.399 37.5928 19.6973 37.8441 18.9956 38.0954C18.2939 38.2964 17.5923 38.4974 16.8906 38.6482C16.2891 38.7487 15.7378 38.8492 15.1364 38.8995C14.5349 38.9497 13.9836 39 13.4323 39C13.332 39 13.2318 39 13.1315 39C13.0313 39 12.9311 39 12.8308 39C10.5253 38.8995 8.21974 38.3969 5.96432 37.442C3.75903 36.4369 1.75421 35.1804 0 33.5722L4.6612 26.0838C4.71132 26.134 4.71132 26.134 4.76144 26.1843C4.76144 26.1843 4.81156 26.2345 4.86168 26.2848C5.9142 27.4407 7.11709 28.5464 8.42022 29.5013C9.72335 30.4562 11.2771 31.009 12.9812 31.1095C13.0313 31.1095 13.0814 31.1095 13.1315 31.1598C13.1817 31.1598 13.2318 31.2101 13.2819 31.2101C13.332 31.2101 13.3821 31.2101 13.4323 31.2603C13.4824 31.2603 13.5325 31.3106 13.5826 31.3106C13.733 31.3106 13.8833 31.3106 14.0838 31.2603C14.2342 31.2603 14.4347 31.2101 14.585 31.1598C15.1865 31.0593 15.7879 30.808 16.3392 30.4562C16.8906 30.1044 17.3417 29.7023 17.6424 29.1495C17.6925 29.049 17.7426 28.9987 17.7426 28.8982C17.7927 28.7977 17.8429 28.7474 17.8429 28.6469C17.9431 28.3956 17.9932 28.1443 17.9932 27.893C18.0433 27.6418 18.0433 27.4407 18.0433 27.2397C18.0433 26.1843 17.5923 25.2796 16.6901 24.576C15.7879 23.8724 14.7855 23.3196 13.733 22.9175C13.2819 22.7668 12.8809 22.616 12.5301 22.5155C12.1291 22.4149 11.7783 22.3144 11.4274 22.2642C11.3773 22.2642 11.3272 22.2642 11.3272 22.2139C11.2771 22.2139 11.227 22.1637 11.227 22.1637C9.32239 21.7113 7.51806 20.9575 5.86408 19.9021C4.21011 18.8466 3.05734 17.3892 2.40578 15.4291C2.30554 15.0271 2.2053 14.625 2.10506 14.2229C2.00482 13.7706 1.95469 13.3686 1.90457 12.866C1.85445 12.7152 1.85445 12.5644 1.85445 12.4137C1.85445 12.2629 1.85445 12.1121 1.85445 11.9613C1.85445 11.6598 1.85445 11.3582 1.90457 11.0064C1.90457 10.7049 1.95469 10.4033 2.05494 10.0515C2.15518 9.29768 2.35566 8.49356 2.65638 7.73969C2.90698 6.98582 3.25782 6.28222 3.70891 5.62887C4.96192 3.5683 6.56577 2.11082 8.52046 1.20619C10.3749 0.45232 12.4299 0 14.5349 0C15.0361 0 15.5373 0.0502577 16.0886 0.100515C16.5898 0.150773 17.1412 0.251289 17.6925 0.301546C19.0959 0.552835 20.4992 0.904639 21.8525 1.45747C23.2057 2.01031 24.5089 2.66366 25.6616 3.36727L22.4539 10.5541C21.4014 9.80026 20.2988 9.09665 19.146 8.49356C17.9932 7.89046 16.7402 7.63917 15.387 7.63917C15.2867 7.63917 15.2366 7.63917 15.1364 7.63917C15.0361 7.63917 14.986 7.63917 14.8858 7.63917C13.9836 7.73969 13.1817 8.14175 12.3797 8.84536C11.6279 9.54897 11.227 10.2526 11.227 11.0567C11.227 11.1572 11.227 11.308 11.2771 11.4085C11.2771 11.509 11.3272 11.6598 11.4274 11.7603C11.5277 12.0116 11.6279 12.2629 11.8284 12.5142C12.0289 12.7655 12.2294 12.9665 12.48 13.1675C12.9311 13.5193 13.5325 13.8209 14.3344 14.1224C15.1364 14.424 15.9884 14.6753 16.8906 14.9768C17.6424 15.1778 18.3441 15.3789 19.0457 15.5296C19.7474 15.6804 20.3489 15.8814 20.8 16.0322C22.9551 16.7861 24.6091 18.0928 25.7118 19.9021C26.8144 21.7113 27.3657 23.6211 27.4158 25.6314C27.4158 25.732 27.4158 25.7822 27.4158 25.7822C27.4158 25.8325 27.4158 25.8827 27.4158 25.8827C27.3657 26.134 27.3657 26.3853 27.3156 26.6366ZM57.3878 29.7526V38.0954H34.6332V0.904639H57.3878V9.04639H44.6071V15.5296H56.636V23.4704H44.6071V29.7526H57.3878ZM95.78 28.2951C94.5772 30.8582 92.8731 32.9691 90.6176 34.5773C88.8133 35.8338 86.8085 36.6881 84.7034 37.1405C82.5483 37.5928 80.3931 37.8943 78.2379 37.9948C77.6365 38.0451 76.9849 38.0451 76.3835 38.0451C75.782 38.0451 75.1806 38.0451 74.6292 38.0451H64.4548V0.854381H75.2808C75.8822 0.854381 76.4336 0.854381 77.035 0.854381C77.6365 0.854381 78.2379 0.854381 78.7892 0.904639C80.8943 1.00515 82.9492 1.3067 85.0042 1.75902C87.0591 2.21134 88.9136 3.06572 90.6176 4.32217C92.7728 5.8299 94.4769 7.84021 95.6798 10.3531C96.8827 12.866 97.5844 15.4291 97.7347 18.0425C97.7849 18.2938 97.7849 18.4948 97.7849 18.7461C97.7849 18.9974 97.7849 19.1985 97.7849 19.4497C97.7849 19.5503 97.7849 19.701 97.7849 19.8518C97.7849 20.0026 97.7849 20.1031 97.7849 20.2539C97.6345 23.0683 96.9829 25.732 95.78 28.2951ZM87.5603 19.0979C87.5603 18.9472 87.5603 18.7964 87.5102 18.6456C87.4099 17.1881 87.0591 15.7307 86.4576 14.3737C85.8562 13.0168 85.0042 11.9111 83.9015 11.0567C83.0996 10.4033 82.1974 9.95103 81.195 9.69974C80.1926 9.44845 79.1902 9.34794 78.1377 9.29768C77.9372 9.29768 77.7367 9.29768 77.5362 9.29768C77.3357 9.29768 77.1353 9.29768 76.9348 9.29768H74.3786V29.8028C74.4789 29.8028 74.6292 29.8028 74.7796 29.8531C74.93 29.8531 75.0302 29.9033 75.1806 29.9033C75.3309 29.9033 75.4813 29.9033 75.5815 29.9536C75.6818 29.9536 75.8321 30.0039 75.9324 30.0039C76.3333 30.0039 76.7343 30.0039 77.1353 29.9536C77.5863 29.9536 77.9873 29.9034 78.3382 29.8531C79.3406 29.7526 80.343 29.6018 81.2952 29.3505C82.2475 29.0992 83.1497 28.6469 83.9015 28.1443C85.1545 27.2397 86.0567 26.0335 86.6581 24.4755C87.2596 22.9175 87.5603 21.3093 87.5603 19.6508C87.5603 19.3995 87.5603 19.2487 87.5603 19.0979ZM142.492 21.058C142.492 21.4601 142.442 21.8621 142.342 22.2642C142.242 23.0683 142.141 23.8724 141.891 24.6765C141.69 25.4807 141.39 26.2848 141.089 27.0387C139.435 30.808 136.929 33.7229 133.471 35.8338C130.012 37.8943 126.404 38.9497 122.594 38.9497C122.344 38.9497 122.043 38.9497 121.793 38.8995C121.542 38.8995 121.291 38.8492 120.991 38.8492C119.687 38.7487 118.384 38.4974 117.081 38.1456C115.778 37.7938 114.525 37.2912 113.322 36.6881C110.064 34.9794 107.508 32.5168 105.654 29.3505C103.799 26.1843 102.847 22.8673 102.847 19.4497C102.847 18.9472 102.847 18.4446 102.897 17.942C102.947 17.4394 102.997 16.8866 103.148 16.384C103.348 15.3789 103.599 14.3737 103.95 13.3183C104.3 12.3131 104.701 11.308 105.253 10.3531C107.057 7.03608 109.513 4.5232 112.721 2.76418C115.878 1.00515 119.236 0.150773 122.695 0.150773C123.146 0.150773 123.647 0.150773 124.098 0.201031C124.599 0.251289 125.05 0.301546 125.501 0.301546C126.955 0.502577 128.358 0.854381 129.762 1.35696C131.165 1.85954 132.518 2.51289 133.821 3.31701C136.578 5.12629 138.733 7.4884 140.237 10.4536C141.74 13.4188 142.492 16.5348 142.492 19.7513C142.492 20.2539 142.492 20.6559 142.492 21.058ZM132.368 18.9472C132.368 18.6959 132.318 18.4948 132.318 18.2436C132.117 16.5851 131.616 14.9768 130.814 13.4188C130.012 11.8608 128.859 10.6546 127.456 9.80026C127.055 9.59923 126.704 9.44845 126.303 9.29768C125.902 9.14691 125.552 8.99613 125.151 8.89562C124.75 8.7951 124.399 8.74484 123.998 8.69459C123.597 8.64433 123.246 8.59407 122.845 8.59407C120.89 8.59407 119.036 9.19716 117.382 10.4536C115.728 11.7101 114.525 13.3686 113.873 15.4291C113.823 15.5296 113.823 15.5799 113.773 15.6804C113.773 15.7809 113.723 15.8312 113.723 15.9317C113.623 16.2835 113.523 16.6353 113.422 16.9871C113.322 17.3389 113.272 17.741 113.172 18.143C113.122 18.3943 113.122 18.6959 113.072 18.9472C113.072 19.1985 113.021 19.4497 113.021 19.7513C113.021 19.9021 113.021 20.0528 113.021 20.2036C113.021 20.3544 113.021 20.5052 113.072 20.6559C113.172 22.7165 113.823 24.6765 114.976 26.5361C116.129 28.3956 117.683 29.6018 119.738 30.2049C119.988 30.3054 120.189 30.3557 120.439 30.4059C120.69 30.4562 120.94 30.5064 121.191 30.5567C121.442 30.607 121.642 30.607 121.893 30.6572C122.143 30.6572 122.344 30.7075 122.594 30.7075C124.649 30.7075 126.504 30.1044 128.158 28.8479C129.812 27.6418 131.015 25.9832 131.716 23.9227C131.817 23.5206 131.917 23.1186 132.017 22.7165C132.117 22.2642 132.167 21.8621 132.218 21.4098C132.268 21.1585 132.268 20.857 132.318 20.6057C132.318 20.3544 132.368 20.1031 132.368 19.8518C132.368 19.4497 132.368 19.1985 132.368 18.9472ZM176.223 38.0954L162.139 18.8969C161.738 18.4446 161.388 17.8918 161.037 17.2384C160.686 16.5851 160.335 15.9317 160.034 15.2281C159.784 14.7255 159.583 14.2229 159.383 13.7204C159.182 13.2178 158.982 12.7655 158.781 12.3634C158.982 13.5696 159.132 14.7758 159.232 16.0322C159.333 17.2887 159.383 18.5451 159.383 19.7513V38.0954H149.609V0.904639H159.383L173.366 20.0026C173.717 20.5554 174.068 21.1082 174.369 21.7113C174.72 22.3144 175.02 22.9175 175.321 23.5709C175.572 24.0735 175.772 24.576 176.023 25.0786C176.273 25.5812 176.474 26.0838 176.724 26.5361C176.674 26.0838 176.624 25.6817 176.574 25.3299C176.524 24.9278 176.474 24.5258 176.424 24.1237C176.323 23.3698 176.273 22.5657 176.273 21.7113C176.223 20.9072 176.223 20.0528 176.223 19.1985V0.954897H185.947V38.1456H176.223V38.0954ZM218.876 38.0954L217.021 31.4111H202.687L200.782 38.1456H190.758L203.489 0.954897H216.119L229 38.1456H218.876V38.0954ZM211.107 11.9111C210.907 11.308 210.706 10.7049 210.556 10.0515C210.405 9.3982 210.255 8.7951 210.105 8.14175C210.004 7.89046 209.954 7.68943 209.954 7.4884C209.904 7.28737 209.854 7.08634 209.854 6.88531C209.804 7.08634 209.754 7.28737 209.704 7.4884C209.654 7.68943 209.603 7.94072 209.553 8.14175C209.503 8.24227 209.503 8.29253 209.503 8.34278C209.503 8.39304 209.503 8.49356 209.453 8.54381C209.353 9.14691 209.202 9.69974 209.052 10.2526C208.902 10.8054 208.751 11.3582 208.601 11.9111L204.842 24.2242H214.916L211.107 11.9111Z" fill="white" /> </symbol>
	<symbol viewBox="0 0 23 21" id="likes">
		<path fill="currentColor" d="m12.964 3.78-.628 3.045-.627 2.625h9.096v2.205L17.773 18.9h-9.41V8.4l4.6-4.62ZM2.09 10.5v8.4-8.4ZM13.8 0 6.9 6.93c-.418.315-.627.84-.627 1.47v10.5c0 1.155.94 2.1 2.09 2.1h9.41c.836 0 1.568-.525 1.881-1.26l3.137-7.455c.104-.21.104-.525.104-.735v-2.1H23c0-1.155-.94-2.1-2.09-2.1h-6.587l1.045-4.83v-.315c0-.42-.209-.84-.418-1.155L13.8 0ZM4.182 8.4H0V21h4.182V8.4Z"/> </symbol>
	<symbol viewBox="0 0 48 54" id="start-button">
		<path fill="#fff" fill-opacity=".7" d="M48 27 0 54V0l48 27Z" /> </symbol>
</svg>
